<svg xmlns="http://www.w3.org/2000/svg" xmlns:xlink="http://www.w3.org/1999/xlink" width="512" zoomAndPan="magnify" viewBox="0 0 384 98.88" height="122" preserveAspectRatio="xMidYMid meet" version="1.0"><defs><g/><clipPath id="bdca0b03cd"><path d="M 294 19 L 349 19 L 349 73 L 294 73 Z M 294 19 " clip-rule="nonzero"/></clipPath><clipPath id="a7c3563708"><path d="M 294.855469 21.128906 L 346.511719 19.339844 L 348.273438 70.246094 L 296.617188 72.035156 Z M 294.855469 21.128906 " clip-rule="nonzero"/></clipPath><clipPath id="62ba633e76"><path d="M 18 0.175781 L 53 0.175781 L 53 36 L 18 36 Z M 18 0.175781 " clip-rule="nonzero"/></clipPath><clipPath id="1db2c01454"><path d="M 0.855469 2.128906 L 52.511719 0.339844 L 54.273438 51.246094 L 2.617188 53.035156 Z M 0.855469 2.128906 " clip-rule="nonzero"/></clipPath><clipPath id="abda208f38"><path d="M 52.230469 0.351562 L 0.574219 2.136719 L 2.335938 53.046875 L 53.992188 51.257812 Z M 52.230469 0.351562 " clip-rule="nonzero"/></clipPath><clipPath id="6f06f936a5"><path d="M 17 30 L 26 30 L 26 38 L 17 38 Z M 17 30 " clip-rule="nonzero"/></clipPath><clipPath id="79cd7fae63"><path d="M 0.855469 2.128906 L 52.511719 0.339844 L 54.273438 51.246094 L 2.617188 53.035156 Z M 0.855469 2.128906 " clip-rule="nonzero"/></clipPath><clipPath id="a4d1fddad9"><path d="M 52.230469 0.351562 L 0.574219 2.136719 L 2.335938 53.046875 L 53.992188 51.257812 Z M 52.230469 0.351562 " clip-rule="nonzero"/></clipPath><clipPath id="4badfc9895"><path d="M 2 35 L 20 35 L 20 53 L 2 53 Z M 2 35 " clip-rule="nonzero"/></clipPath><clipPath id="9bbe429e31"><path d="M 0.855469 2.128906 L 52.511719 0.339844 L 54.273438 51.246094 L 2.617188 53.035156 Z M 0.855469 2.128906 " clip-rule="nonzero"/></clipPath><clipPath id="ea7e484754"><path d="M 52.230469 0.351562 L 0.574219 2.136719 L 2.335938 53.046875 L 53.992188 51.257812 Z M 52.230469 0.351562 " clip-rule="nonzero"/></clipPath><clipPath id="b881aa55c3"><path d="M 31 11 L 48 11 L 48 31 L 31 31 Z M 31 11 " clip-rule="nonzero"/></clipPath><clipPath id="e4ccdf102d"><path d="M 0.855469 2.128906 L 52.511719 0.339844 L 54.273438 51.246094 L 2.617188 53.035156 Z M 0.855469 2.128906 " clip-rule="nonzero"/></clipPath><clipPath id="5cba1d8783"><path d="M 52.230469 0.351562 L 0.574219 2.136719 L 2.335938 53.046875 L 53.992188 51.257812 Z M 52.230469 0.351562 " clip-rule="nonzero"/></clipPath><clipPath id="1de4b9b005"><rect x="0" width="55" y="0" height="54"/></clipPath></defs><g fill="#323d8f" fill-opacity="1"><g transform="translate(36.65218, 71.734814)"><g><path d="M 20.390625 0.65625 C 16.847656 0.65625 13.425781 0.15625 10.125 -0.84375 C 6.820312 -1.851562 4.210938 -3.1875 2.296875 -4.84375 L 5.25 -11.46875 C 7.125 -9.976562 9.425781 -8.765625 12.15625 -7.828125 C 14.882812 -6.890625 17.628906 -6.421875 20.390625 -6.421875 C 23.796875 -6.421875 26.335938 -6.96875 28.015625 -8.0625 C 29.703125 -9.15625 30.546875 -10.597656 30.546875 -12.390625 C 30.546875 -13.703125 30.070312 -14.78125 29.125 -15.625 C 28.1875 -16.476562 27 -17.144531 25.5625 -17.625 C 24.125 -18.113281 22.160156 -18.660156 19.671875 -19.265625 C 16.171875 -20.097656 13.335938 -20.925781 11.171875 -21.75 C 9.015625 -22.582031 7.160156 -23.882812 5.609375 -25.65625 C 4.054688 -27.425781 3.28125 -29.820312 3.28125 -32.84375 C 3.28125 -35.375 3.96875 -37.675781 5.34375 -39.75 C 6.71875 -41.832031 8.789062 -43.484375 11.5625 -44.703125 C 14.34375 -45.921875 17.742188 -46.53125 21.765625 -46.53125 C 24.554688 -46.53125 27.304688 -46.179688 30.015625 -45.484375 C 32.722656 -44.785156 35.0625 -43.78125 37.03125 -42.46875 L 34.34375 -35.859375 C 32.332031 -37.035156 30.234375 -37.925781 28.046875 -38.53125 C 25.867188 -39.144531 23.753906 -39.453125 21.703125 -39.453125 C 18.335938 -39.453125 15.832031 -38.882812 14.1875 -37.75 C 12.550781 -36.613281 11.734375 -35.109375 11.734375 -33.234375 C 11.734375 -31.921875 12.203125 -30.847656 13.140625 -30.015625 C 14.078125 -29.191406 15.265625 -28.535156 16.703125 -28.046875 C 18.148438 -27.566406 20.117188 -27.023438 22.609375 -26.421875 C 26.015625 -25.628906 28.8125 -24.804688 31 -23.953125 C 33.1875 -23.097656 35.054688 -21.796875 36.609375 -20.046875 C 38.160156 -18.304688 38.9375 -15.953125 38.9375 -12.984375 C 38.9375 -10.441406 38.25 -8.144531 36.875 -6.09375 C 35.5 -4.039062 33.410156 -2.398438 30.609375 -1.171875 C 27.816406 0.046875 24.410156 0.65625 20.390625 0.65625 Z M 20.390625 0.65625 "/></g></g></g><g fill="#323d8f" fill-opacity="1"><g transform="translate(74.275285, 71.734814)"><g><path d="M 38.28125 -17.296875 C 38.28125 -16.734375 38.234375 -15.925781 38.140625 -14.875 L 10.6875 -14.875 C 11.164062 -12.300781 12.421875 -10.257812 14.453125 -8.75 C 16.484375 -7.238281 19.007812 -6.484375 22.03125 -6.484375 C 25.875 -6.484375 29.039062 -7.753906 31.53125 -10.296875 L 35.921875 -5.25 C 34.347656 -3.363281 32.359375 -1.941406 29.953125 -0.984375 C 27.546875 -0.0234375 24.835938 0.453125 21.828125 0.453125 C 17.984375 0.453125 14.597656 -0.304688 11.671875 -1.828125 C 8.742188 -3.359375 6.476562 -5.488281 4.875 -8.21875 C 3.28125 -10.957031 2.484375 -14.050781 2.484375 -17.5 C 2.484375 -20.90625 3.257812 -23.972656 4.8125 -26.703125 C 6.363281 -29.441406 8.515625 -31.570312 11.265625 -33.09375 C 14.023438 -34.625 17.128906 -35.390625 20.578125 -35.390625 C 23.984375 -35.390625 27.03125 -34.632812 29.71875 -33.125 C 32.40625 -31.625 34.503906 -29.503906 36.015625 -26.765625 C 37.523438 -24.035156 38.28125 -20.878906 38.28125 -17.296875 Z M 20.578125 -28.84375 C 17.960938 -28.84375 15.742188 -28.066406 13.921875 -26.515625 C 12.109375 -24.960938 11.007812 -22.894531 10.625 -20.3125 L 30.484375 -20.3125 C 30.128906 -22.851562 29.054688 -24.910156 27.265625 -26.484375 C 25.472656 -28.054688 23.242188 -28.84375 20.578125 -28.84375 Z M 20.578125 -28.84375 "/></g></g></g><g fill="#323d8f" fill-opacity="1"><g transform="translate(111.439569, 71.734814)"><g><path d="M 25.234375 -35.390625 C 29.648438 -35.390625 33.191406 -34.097656 35.859375 -31.515625 C 38.523438 -28.941406 39.859375 -25.125 39.859375 -20.0625 L 39.859375 0 L 31.65625 0 L 31.65625 -19.015625 C 31.65625 -22.066406 30.929688 -24.367188 29.484375 -25.921875 C 28.046875 -27.472656 25.992188 -28.25 23.328125 -28.25 C 20.316406 -28.25 17.9375 -27.34375 16.1875 -25.53125 C 14.4375 -23.71875 13.5625 -21.109375 13.5625 -17.703125 L 13.5625 0 L 5.375 0 L 5.375 -35 L 13.171875 -35 L 13.171875 -30.484375 C 14.523438 -32.097656 16.226562 -33.316406 18.28125 -34.140625 C 20.34375 -34.972656 22.660156 -35.390625 25.234375 -35.390625 Z M 25.234375 -35.390625 "/></g></g></g><g fill="#323d8f" fill-opacity="1"><g transform="translate(152.733215, 71.734814)"><g><path d="M 26.421875 -1.90625 C 25.453125 -1.113281 24.28125 -0.519531 22.90625 -0.125 C 21.53125 0.257812 20.078125 0.453125 18.546875 0.453125 C 14.703125 0.453125 11.726562 -0.550781 9.625 -2.5625 C 7.53125 -4.570312 6.484375 -7.5 6.484375 -11.34375 L 6.484375 -28.1875 L 0.71875 -28.1875 L 0.71875 -34.734375 L 6.484375 -34.734375 L 6.484375 -42.734375 L 14.6875 -42.734375 L 14.6875 -34.734375 L 24.0625 -34.734375 L 24.0625 -28.1875 L 14.6875 -28.1875 L 14.6875 -11.53125 C 14.6875 -9.832031 15.097656 -8.535156 15.921875 -7.640625 C 16.753906 -6.742188 17.957031 -6.296875 19.53125 -6.296875 C 21.363281 -6.296875 22.894531 -6.773438 24.125 -7.734375 Z M 26.421875 -1.90625 "/></g></g></g><g fill="#323d8f" fill-opacity="1"><g transform="translate(176.91948, 71.734814)"><g><path d="M 5.375 -35 L 13.5625 -35 L 13.5625 0 L 5.375 0 Z M 9.5 -40.765625 C 8.019531 -40.765625 6.773438 -41.234375 5.765625 -42.171875 C 4.765625 -43.117188 4.265625 -44.289062 4.265625 -45.6875 C 4.265625 -47.082031 4.765625 -48.25 5.765625 -49.1875 C 6.773438 -50.132812 8.019531 -50.609375 9.5 -50.609375 C 10.988281 -50.609375 12.234375 -50.160156 13.234375 -49.265625 C 14.242188 -48.367188 14.75 -47.242188 14.75 -45.890625 C 14.75 -44.441406 14.253906 -43.222656 13.265625 -42.234375 C 12.285156 -41.253906 11.03125 -40.765625 9.5 -40.765625 Z M 9.5 -40.765625 "/></g></g></g><g fill="#323d8f" fill-opacity="1"><g transform="translate(192.257098, 71.734814)"><g><path d="M 25.234375 -35.390625 C 29.648438 -35.390625 33.191406 -34.097656 35.859375 -31.515625 C 38.523438 -28.941406 39.859375 -25.125 39.859375 -20.0625 L 39.859375 0 L 31.65625 0 L 31.65625 -19.015625 C 31.65625 -22.066406 30.929688 -24.367188 29.484375 -25.921875 C 28.046875 -27.472656 25.992188 -28.25 23.328125 -28.25 C 20.316406 -28.25 17.9375 -27.34375 16.1875 -25.53125 C 14.4375 -23.71875 13.5625 -21.109375 13.5625 -17.703125 L 13.5625 0 L 5.375 0 L 5.375 -35 L 13.171875 -35 L 13.171875 -30.484375 C 14.523438 -32.097656 16.226562 -33.316406 18.28125 -34.140625 C 20.34375 -34.972656 22.660156 -35.390625 25.234375 -35.390625 Z M 25.234375 -35.390625 "/></g></g></g><g fill="#323d8f" fill-opacity="1"><g transform="translate(233.878471, 71.734814)"><g><path d="M 38.28125 -17.296875 C 38.28125 -16.734375 38.234375 -15.925781 38.140625 -14.875 L 10.6875 -14.875 C 11.164062 -12.300781 12.421875 -10.257812 14.453125 -8.75 C 16.484375 -7.238281 19.007812 -6.484375 22.03125 -6.484375 C 25.875 -6.484375 29.039062 -7.753906 31.53125 -10.296875 L 35.921875 -5.25 C 34.347656 -3.363281 32.359375 -1.941406 29.953125 -0.984375 C 27.546875 -0.0234375 24.835938 0.453125 21.828125 0.453125 C 17.984375 0.453125 14.597656 -0.304688 11.671875 -1.828125 C 8.742188 -3.359375 6.476562 -5.488281 4.875 -8.21875 C 3.28125 -10.957031 2.484375 -14.050781 2.484375 -17.5 C 2.484375 -20.90625 3.257812 -23.972656 4.8125 -26.703125 C 6.363281 -29.441406 8.515625 -31.570312 11.265625 -33.09375 C 14.023438 -34.625 17.128906 -35.390625 20.578125 -35.390625 C 23.984375 -35.390625 27.03125 -34.632812 29.71875 -33.125 C 32.40625 -31.625 34.503906 -29.503906 36.015625 -26.765625 C 37.523438 -24.035156 38.28125 -20.878906 38.28125 -17.296875 Z M 20.578125 -28.84375 C 17.960938 -28.84375 15.742188 -28.066406 13.921875 -26.515625 C 12.109375 -24.960938 11.007812 -22.894531 10.625 -20.3125 L 30.484375 -20.3125 C 30.128906 -22.851562 29.054688 -24.910156 27.265625 -26.484375 C 25.472656 -28.054688 23.242188 -28.84375 20.578125 -28.84375 Z M 20.578125 -28.84375 "/></g></g></g><g fill="#323d8f" fill-opacity="1"><g transform="translate(271.042756, 71.734814)"><g><path d="M 5.375 -48.640625 L 13.5625 -48.640625 L 13.5625 0 L 5.375 0 Z M 5.375 -48.640625 "/></g></g></g><path fill="#ffffff" d="M 330.671875 22.863281 C 331.613281 22.902344 332.542969 23.03125 333.464844 23.25 C 334.382812 23.46875 335.269531 23.777344 336.125 24.175781 C 336.984375 24.570312 337.796875 25.042969 338.558594 25.601562 C 339.324219 26.15625 340.023438 26.777344 340.667969 27.472656 C 341.308594 28.167969 341.875 28.914062 342.367188 29.71875 C 342.859375 30.527344 343.269531 31.371094 343.597656 32.257812 C 343.925781 33.144531 344.160156 34.050781 344.308594 34.984375 C 344.457031 35.917969 344.511719 36.855469 344.476562 37.800781 C 344.4375 38.742188 344.308594 39.675781 344.089844 40.59375 C 343.867188 41.511719 343.5625 42.398438 343.164062 43.257812 C 342.769531 44.113281 342.292969 44.925781 341.738281 45.6875 C 341.183594 46.453125 340.558594 47.15625 339.867188 47.796875 C 339.171875 48.4375 338.425781 49.003906 337.617188 49.496094 C 336.8125 49.992188 335.96875 50.402344 335.082031 50.726562 C 334.195312 51.054688 333.285156 51.292969 332.355469 51.4375 C 331.421875 51.585938 330.484375 51.640625 329.539062 51.605469 C 328.597656 51.566406 327.664062 51.4375 326.746094 51.21875 C 325.828125 51 324.941406 50.691406 324.082031 50.292969 C 323.226562 49.898438 322.414062 49.425781 321.652344 48.867188 C 320.886719 48.3125 320.183594 47.691406 319.542969 46.996094 C 318.902344 46.304688 318.335938 45.554688 317.84375 44.75 C 317.347656 43.941406 316.9375 43.097656 316.613281 42.210938 C 316.285156 41.324219 316.046875 40.417969 315.898438 39.484375 C 315.753906 38.550781 315.695312 37.613281 315.734375 36.667969 C 315.769531 35.726562 315.898438 34.792969 316.121094 33.875 C 316.339844 32.957031 316.648438 32.070312 317.042969 31.210938 C 317.441406 30.355469 317.914062 29.542969 318.46875 28.78125 C 319.023438 28.015625 319.648438 27.3125 320.34375 26.671875 C 321.035156 26.03125 321.785156 25.464844 322.589844 24.972656 C 323.394531 24.476562 324.242188 24.066406 325.128906 23.742188 C 326.015625 23.414062 326.921875 23.175781 327.855469 23.03125 C 328.789062 22.882812 329.726562 22.828125 330.671875 22.863281 Z M 330.671875 22.863281 " fill-opacity="1" fill-rule="nonzero"/><path fill="#323d8f" d="M 345.238281 42.226562 C 342.488281 50.574219 333.457031 55.121094 325.113281 52.371094 C 316.765625 49.617188 312.21875 40.585938 314.96875 32.242188 C 317.722656 23.894531 326.753906 19.347656 335.097656 22.097656 C 343.441406 24.851562 347.992188 33.882812 345.238281 42.226562 Z M 317.925781 33.214844 C 315.710938 39.933594 319.371094 47.199219 326.085938 49.414062 C 332.804688 51.628906 340.070312 47.96875 342.285156 41.253906 C 344.5 34.535156 340.839844 27.269531 334.121094 25.054688 C 327.40625 22.839844 320.140625 26.5 317.925781 33.214844 Z M 317.925781 33.214844 " fill-opacity="1" fill-rule="nonzero"/><path fill="#323d8f" d="M 327.039062 30.140625 C 327.421875 30.144531 327.804688 30.203125 328.1875 30.328125 C 330.152344 30.976562 331.21875 33.09375 330.570312 35.058594 C 329.921875 37.023438 327.804688 38.089844 325.839844 37.441406 C 324.175781 36.890625 323.15625 35.285156 323.28125 33.609375 C 323.078125 33.992188 322.90625 34.390625 322.765625 34.8125 C 321.429688 38.867188 323.628906 43.238281 327.683594 44.574219 C 331.738281 45.910156 336.109375 43.710938 337.445312 39.65625 C 338.78125 35.601562 336.578125 31.230469 332.527344 29.894531 C 330.65625 29.277344 328.71875 29.414062 327.039062 30.140625 Z M 327.039062 30.140625 " fill-opacity="1" fill-rule="nonzero"/><g clip-path="url(#bdca0b03cd)"><g clip-path="url(#a7c3563708)"><g transform="matrix(1, 0, 0, 1, 294, 19)"><g clip-path="url(#1de4b9b005)"><g clip-path="url(#62ba633e76)"><g clip-path="url(#1db2c01454)"><g clip-path="url(#abda208f38)"><path fill="#ffffff" d="M 36.269531 35.203125 C 45.714844 34.875 53.136719 26.925781 52.808594 17.480469 C 52.480469 8.03125 44.53125 0.613281 35.082031 0.941406 C 25.636719 1.269531 18.21875 9.21875 18.546875 18.664062 C 18.875 28.113281 26.824219 35.53125 36.269531 35.203125 Z M 35.179688 3.757812 C 36.121094 3.726562 37.054688 3.785156 37.984375 3.9375 C 38.910156 4.089844 39.816406 4.328125 40.695312 4.660156 C 41.578125 4.988281 42.417969 5.402344 43.21875 5.894531 C 44.015625 6.390625 44.761719 6.960938 45.449219 7.601562 C 46.136719 8.242188 46.753906 8.945312 47.300781 9.707031 C 47.851562 10.472656 48.320312 11.28125 48.710938 12.136719 C 49.101562 12.992188 49.402344 13.878906 49.617188 14.792969 C 49.832031 15.710938 49.957031 16.636719 49.988281 17.578125 C 50.023438 18.515625 49.964844 19.449219 49.8125 20.378906 C 49.660156 21.304688 49.417969 22.210938 49.089844 23.089844 C 48.761719 23.972656 48.347656 24.8125 47.851562 25.613281 C 47.359375 26.410156 46.789062 27.15625 46.148438 27.84375 C 45.507812 28.53125 44.804688 29.148438 44.042969 29.699219 C 43.277344 30.246094 42.46875 30.714844 41.613281 31.105469 C 40.757812 31.496094 39.871094 31.796875 38.957031 32.011719 C 38.039062 32.230469 37.113281 32.351562 36.171875 32.386719 C 35.234375 32.417969 34.296875 32.359375 33.371094 32.207031 C 32.441406 32.054688 31.539062 31.816406 30.65625 31.484375 C 29.777344 31.15625 28.9375 30.742188 28.136719 30.25 C 27.335938 29.753906 26.59375 29.183594 25.90625 28.542969 C 25.21875 27.902344 24.601562 27.199219 24.050781 26.4375 C 23.503906 25.671875 23.03125 24.863281 22.644531 24.007812 C 22.253906 23.152344 21.949219 22.265625 21.734375 21.351562 C 21.519531 20.433594 21.394531 19.507812 21.363281 18.566406 C 21.332031 17.628906 21.394531 16.695312 21.546875 15.765625 C 21.699219 14.839844 21.9375 13.9375 22.269531 13.054688 C 22.597656 12.175781 23.011719 11.335938 23.507812 10.535156 C 24 9.738281 24.570312 8.996094 25.210938 8.308594 C 25.851562 7.621094 26.554688 7.003906 27.316406 6.453125 C 28.082031 5.902344 28.890625 5.433594 29.746094 5.042969 C 30.601562 4.652344 31.484375 4.351562 32.398438 4.136719 C 33.316406 3.917969 34.242188 3.792969 35.179688 3.761719 Z M 35.179688 3.757812 " fill-opacity="1" fill-rule="nonzero"/></g></g></g><g clip-path="url(#6f06f936a5)"><g clip-path="url(#79cd7fae63)"><g clip-path="url(#a4d1fddad9)"><path fill="#ffffff" d="M 23.964844 37.484375 C 24.28125 37.472656 24.570312 37.375 24.832031 37.1875 C 25.089844 37 25.273438 36.757812 25.386719 36.460938 C 25.5 36.164062 25.519531 35.859375 25.449219 35.546875 C 25.375 35.238281 25.222656 34.972656 24.992188 34.753906 L 20.476562 30.511719 C 20.328125 30.351562 20.152344 30.230469 19.953125 30.144531 C 19.753906 30.058594 19.546875 30.015625 19.328125 30.015625 C 19.109375 30.015625 18.902344 30.058594 18.703125 30.144531 C 18.503906 30.230469 18.328125 30.351562 18.179688 30.511719 C 18.03125 30.667969 17.917969 30.847656 17.84375 31.054688 C 17.769531 31.257812 17.738281 31.46875 17.75 31.683594 C 17.765625 31.902344 17.820312 32.109375 17.917969 32.300781 C 18.015625 32.496094 18.144531 32.664062 18.3125 32.804688 L 22.828125 37.046875 C 23.144531 37.351562 23.523438 37.496094 23.964844 37.484375 Z M 23.964844 37.484375 " fill-opacity="1" fill-rule="nonzero"/></g></g></g><g clip-path="url(#4badfc9895)"><g clip-path="url(#9bbe429e31)"><g clip-path="url(#ea7e484754)"><path fill="#ffffff" d="M 5.542969 52.933594 C 6.304688 52.910156 6.941406 52.617188 7.453125 52.054688 L 18.648438 39.761719 C 18.890625 39.5 19.070312 39.195312 19.195312 38.859375 C 19.316406 38.523438 19.367188 38.171875 19.351562 37.816406 C 19.335938 37.457031 19.25 37.113281 19.097656 36.789062 C 18.945312 36.464844 18.738281 36.179688 18.472656 35.9375 C 18.207031 35.699219 17.90625 35.515625 17.566406 35.394531 C 17.230469 35.273438 16.882812 35.21875 16.523438 35.234375 C 16.164062 35.253906 15.820312 35.335938 15.496094 35.488281 C 15.171875 35.640625 14.890625 35.851562 14.648438 36.117188 L 3.449219 48.40625 C 3.082031 48.808594 2.859375 49.277344 2.777344 49.816406 C 2.691406 50.355469 2.765625 50.871094 2.996094 51.367188 C 3.222656 51.859375 3.570312 52.25 4.03125 52.535156 C 4.496094 52.820312 5 52.953125 5.542969 52.933594 Z M 5.542969 52.933594 " fill-opacity="1" fill-rule="nonzero"/></g></g></g><g clip-path="url(#b881aa55c3)"><g clip-path="url(#e4ccdf102d)"><g clip-path="url(#5cba1d8783)"><path fill="#ffffff" d="M 36.121094 30.136719 C 38.328125 30.0625 41.222656 29.328125 44.261719 26.816406 C 46.929688 24.613281 48.082031 21.328125 47.59375 17.316406 C 47.359375 15.460938 46.855469 13.683594 46.078125 11.980469 C 45.976562 11.773438 45.8125 11.632812 45.59375 11.558594 C 45.371094 11.484375 45.15625 11.496094 44.949219 11.597656 C 44.738281 11.703125 44.597656 11.863281 44.523438 12.082031 C 44.445312 12.300781 44.457031 12.515625 44.558594 12.726562 C 45.253906 14.269531 45.707031 15.882812 45.917969 17.5625 C 46.328125 21 45.40625 23.671875 43.1875 25.511719 C 37.703125 30.042969 32.804688 27.96875 32.757812 27.945312 C 32.542969 27.847656 32.324219 27.839844 32.101562 27.921875 C 31.878906 28.003906 31.722656 28.15625 31.625 28.371094 C 31.53125 28.589844 31.527344 28.808594 31.613281 29.027344 C 31.703125 29.246094 31.855469 29.402344 32.074219 29.492188 C 32.199219 29.550781 33.769531 30.21875 36.121094 30.136719 Z M 36.121094 30.136719 " fill-opacity="1" fill-rule="nonzero"/></g></g></g></g></g></g></g></svg>