<svg xmlns="http://www.w3.org/2000/svg" version="1.1" xmlns:xlink="http://www.w3.org/1999/xlink" width="1000" height="1000"><g clip-path="url(#SvgjsClipPath1872)"><rect width="1000" height="1000" fill="#323d8f"></rect><g transform="matrix(1.7578125,0,0,1.7578125,50,50)"><svg xmlns="http://www.w3.org/2000/svg" version="1.1" xmlns:xlink="http://www.w3.org/1999/xlink" width="512" height="512"><svg xmlns="http://www.w3.org/2000/svg" xmlns:xlink="http://www.w3.org/1999/xlink" width="512" zoomAndPan="magnify" viewBox="0 0 384 383.999986" height="512" preserveAspectRatio="xMidYMid meet" version="1.0"><defs><clipPath id="4f63e6f731"><path d="M 0.761719 1 L 350.679688 1 L 350.679688 346 L 0.761719 346 Z M 0.761719 1 " clip-rule="nonzero"></path></clipPath><clipPath id="df4f917447"><path d="M -0.0585938 13.144531 L 338.691406 1.414062 L 350.207031 334.007812 L 11.457031 345.738281 Z M -0.0585938 13.144531 " clip-rule="nonzero"></path></clipPath><clipPath id="0769912c91"><path d="M 116 4 L 343 4 L 343 231 L 116 231 Z M 116 4 " clip-rule="nonzero"></path></clipPath><clipPath id="9402793091"><path d="M -0.0585938 12.144531 L 338.691406 0.414062 L 350.207031 333.007812 L 11.457031 344.738281 Z M -0.0585938 12.144531 " clip-rule="nonzero"></path></clipPath><clipPath id="1d663e22ee"><path d="M 338.402344 0.425781 L -0.347656 12.15625 L 11.167969 344.75 L 349.917969 333.019531 Z M 338.402344 0.425781 " clip-rule="nonzero"></path></clipPath><clipPath id="a8c1d266cc"><path d="M 111 195 L 163 195 L 163 246 L 111 246 Z M 111 195 " clip-rule="nonzero"></path></clipPath><clipPath id="e76eb264ed"><path d="M -0.0585938 12.144531 L 338.691406 0.414062 L 350.207031 333.007812 L 11.457031 344.738281 Z M -0.0585938 12.144531 " clip-rule="nonzero"></path></clipPath><clipPath id="a5c1730f0e"><path d="M 338.402344 0.425781 L -0.347656 12.15625 L 11.167969 344.75 L 349.917969 333.019531 Z M 338.402344 0.425781 " clip-rule="nonzero"></path></clipPath><clipPath id="68e821875b"><path d="M 12 230 L 122 230 L 122 344.878906 L 12 344.878906 Z M 12 230 " clip-rule="nonzero"></path></clipPath><clipPath id="a191f3d6e5"><path d="M -0.0585938 12.144531 L 338.691406 0.414062 L 350.207031 333.007812 L 11.457031 344.738281 Z M -0.0585938 12.144531 " clip-rule="nonzero"></path></clipPath><clipPath id="c8b907e41a"><path d="M 338.402344 0.425781 L -0.347656 12.15625 L 11.167969 344.75 L 349.917969 333.019531 Z M 338.402344 0.425781 " clip-rule="nonzero"></path></clipPath><clipPath id="59dc9b63a0"><path d="M 202 73 L 309 73 L 309 197 L 202 197 Z M 202 73 " clip-rule="nonzero"></path></clipPath><clipPath id="127b458a14"><path d="M -0.0585938 12.144531 L 338.691406 0.414062 L 350.207031 333.007812 L 11.457031 344.738281 Z M -0.0585938 12.144531 " clip-rule="nonzero"></path></clipPath><clipPath id="bf15f53c48"><path d="M 338.402344 0.425781 L -0.347656 12.15625 L 11.167969 344.75 L 349.917969 333.019531 Z M 338.402344 0.425781 " clip-rule="nonzero"></path></clipPath><clipPath id="6627d85fb6"><rect x="0" width="351" y="0" height="345"></rect></clipPath><clipPath id="01e8d12f2a"><rect x="0" width="351" y="0" height="349"></rect></clipPath><clipPath id="SvgjsClipPath1872"><rect width="1000" height="1000" x="0" y="0" rx="500" ry="500"></rect></clipPath></defs><g transform="matrix(1, 0, 0, 1, 17, 17)"><g clip-path="url(#01e8d12f2a)"><path fill="#ffffff" d="M 235.890625 24.574219 C 237.441406 24.632812 238.988281 24.734375 240.53125 24.871094 C 242.074219 25.007812 243.617188 25.179688 245.152344 25.394531 C 246.6875 25.605469 248.21875 25.855469 249.742188 26.144531 C 251.265625 26.429688 252.78125 26.757812 254.289062 27.117188 C 255.796875 27.480469 257.292969 27.878906 258.78125 28.316406 C 260.269531 28.75 261.746094 29.222656 263.210938 29.730469 C 264.675781 30.238281 266.128906 30.78125 267.566406 31.363281 C 269.003906 31.941406 270.425781 32.554688 271.835938 33.203125 C 273.242188 33.851562 274.632812 34.535156 276.007812 35.253906 C 277.382812 35.972656 278.738281 36.722656 280.078125 37.507812 C 281.414062 38.289062 282.730469 39.105469 284.03125 39.957031 C 285.328125 40.804688 286.601562 41.683594 287.855469 42.597656 C 289.113281 43.507812 290.34375 44.449219 291.550781 45.421875 C 292.757812 46.394531 293.941406 47.394531 295.101562 48.425781 C 296.261719 49.453125 297.394531 50.511719 298.5 51.597656 C 299.609375 52.683594 300.6875 53.796875 301.738281 54.933594 C 302.792969 56.074219 303.816406 57.238281 304.8125 58.425781 C 305.808594 59.613281 306.773438 60.828125 307.707031 62.0625 C 308.644531 63.300781 309.546875 64.558594 310.421875 65.839844 C 311.296875 67.121094 312.136719 68.421875 312.949219 69.742188 C 313.757812 71.066406 314.535156 72.40625 315.28125 73.765625 C 316.023438 75.125 316.734375 76.503906 317.410156 77.898438 C 318.085938 79.292969 318.730469 80.707031 319.335938 82.132812 C 319.945312 83.558594 320.515625 85 321.054688 86.453125 C 321.589844 87.910156 322.089844 89.375 322.554688 90.855469 C 323.019531 92.332031 323.445312 93.824219 323.839844 95.324219 C 324.230469 96.824219 324.585938 98.332031 324.902344 99.851562 C 325.21875 101.367188 325.5 102.894531 325.742188 104.425781 C 325.984375 105.957031 326.1875 107.492188 326.355469 109.035156 C 326.523438 110.574219 326.652344 112.121094 326.742188 113.667969 C 326.835938 115.214844 326.886719 116.765625 326.902344 118.316406 C 326.917969 119.867188 326.894531 121.414062 326.832031 122.964844 C 326.773438 124.515625 326.675781 126.0625 326.535156 127.605469 C 326.398438 129.148438 326.226562 130.691406 326.011719 132.226562 C 325.800781 133.761719 325.550781 135.292969 325.261719 136.816406 C 324.976562 138.339844 324.648438 139.855469 324.289062 141.363281 C 323.925781 142.871094 323.527344 144.367188 323.089844 145.855469 C 322.65625 147.34375 322.183594 148.820312 321.675781 150.285156 C 321.167969 151.75 320.625 153.203125 320.046875 154.640625 C 319.464844 156.078125 318.851562 157.5 318.203125 158.910156 C 317.554688 160.316406 316.871094 161.707031 316.152344 163.082031 C 315.433594 164.457031 314.683594 165.8125 313.898438 167.152344 C 313.117188 168.488281 312.300781 169.804688 311.449219 171.105469 C 310.601562 172.402344 309.722656 173.675781 308.808594 174.933594 C 307.898438 176.1875 306.957031 177.417969 305.984375 178.625 C 305.011719 179.832031 304.011719 181.015625 302.980469 182.175781 C 301.953125 183.335938 300.894531 184.46875 299.808594 185.574219 C 298.722656 186.683594 297.609375 187.761719 296.472656 188.8125 C 295.335938 189.867188 294.171875 190.890625 292.980469 191.886719 C 291.792969 192.882812 290.578125 193.847656 289.34375 194.78125 C 288.105469 195.71875 286.847656 196.621094 285.566406 197.496094 C 284.289062 198.371094 282.984375 199.214844 281.664062 200.023438 C 280.339844 200.832031 279 201.609375 277.640625 202.355469 C 276.28125 203.097656 274.902344 203.808594 273.507812 204.484375 C 272.113281 205.164062 270.703125 205.804688 269.273438 206.410156 C 267.847656 207.019531 266.40625 207.589844 264.953125 208.128906 C 263.5 208.664062 262.03125 209.164062 260.550781 209.628906 C 259.074219 210.09375 257.582031 210.523438 256.082031 210.914062 C 254.582031 211.304688 253.074219 211.660156 251.554688 211.976562 C 250.039062 212.292969 248.511719 212.574219 246.980469 212.816406 C 245.449219 213.058594 243.914062 213.261719 242.371094 213.429688 C 240.832031 213.597656 239.285156 213.726562 237.738281 213.816406 C 236.191406 213.910156 234.640625 213.960938 233.089844 213.976562 C 231.539062 213.992188 229.992188 213.96875 228.441406 213.910156 C 226.890625 213.847656 225.34375 213.75 223.800781 213.613281 C 222.257812 213.472656 220.714844 213.300781 219.179688 213.085938 C 217.644531 212.875 216.113281 212.625 214.589844 212.335938 C 213.066406 212.050781 211.550781 211.726562 210.042969 211.363281 C 208.535156 211 207.039062 210.601562 205.550781 210.167969 C 204.0625 209.730469 202.585938 209.257812 201.121094 208.75 C 199.65625 208.242188 198.203125 207.699219 196.765625 207.121094 C 195.328125 206.539062 193.90625 205.925781 192.496094 205.277344 C 191.089844 204.628906 189.699219 203.945312 188.324219 203.226562 C 186.949219 202.507812 185.59375 201.757812 184.253906 200.972656 C 182.917969 200.191406 181.601562 199.375 180.300781 198.523438 C 179.003906 197.675781 177.730469 196.796875 176.476562 195.882812 C 175.21875 194.972656 173.988281 194.03125 172.78125 193.058594 C 171.574219 192.085938 170.390625 191.085938 169.230469 190.058594 C 168.070312 189.027344 166.9375 187.96875 165.832031 186.882812 C 164.722656 185.796875 163.644531 184.6875 162.59375 183.546875 C 161.539062 182.410156 160.515625 181.246094 159.519531 180.054688 C 158.527344 178.867188 157.558594 177.65625 156.625 176.417969 C 155.6875 175.183594 154.785156 173.921875 153.910156 172.640625 C 153.035156 171.363281 152.195312 170.058594 151.382812 168.738281 C 150.574219 167.417969 149.796875 166.074219 149.050781 164.714844 C 148.308594 163.355469 147.597656 161.976562 146.921875 160.582031 C 146.246094 159.1875 145.601562 157.777344 144.996094 156.347656 C 144.386719 154.921875 143.816406 153.480469 143.277344 152.027344 C 142.742188 150.574219 142.242188 149.105469 141.777344 147.625 C 141.3125 146.148438 140.886719 144.65625 140.492188 143.15625 C 140.101562 141.65625 139.746094 140.148438 139.429688 138.628906 C 139.113281 137.113281 138.832031 135.585938 138.589844 134.054688 C 138.347656 132.523438 138.144531 130.988281 137.976562 129.445312 C 137.808594 127.90625 137.679688 126.359375 137.589844 124.8125 C 137.496094 123.265625 137.445312 121.714844 137.429688 120.164062 C 137.414062 118.613281 137.4375 117.066406 137.5 115.515625 C 137.558594 113.964844 137.660156 112.417969 137.796875 110.875 C 137.933594 109.332031 138.105469 107.789062 138.320312 106.253906 C 138.53125 104.71875 138.78125 103.1875 139.070312 101.664062 C 139.355469 100.140625 139.683594 98.625 140.042969 97.117188 C 140.40625 95.609375 140.804688 94.113281 141.242188 92.625 C 141.675781 91.136719 142.148438 89.660156 142.65625 88.195312 C 143.164062 86.730469 143.707031 85.28125 144.285156 83.839844 C 144.867188 82.402344 145.480469 80.980469 146.128906 79.570312 C 146.777344 78.164062 147.460938 76.773438 148.179688 75.398438 C 148.898438 74.023438 149.648438 72.667969 150.433594 71.328125 C 151.214844 69.992188 152.03125 68.675781 152.882812 67.378906 C 153.730469 66.078125 154.609375 64.804688 155.523438 63.550781 C 156.433594 62.292969 157.375 61.0625 158.347656 59.855469 C 159.320312 58.648438 160.320312 57.464844 161.351562 56.304688 C 162.378906 55.144531 163.4375 54.011719 164.523438 52.90625 C 165.609375 51.800781 166.722656 50.71875 167.859375 49.667969 C 169 48.613281 170.160156 47.589844 171.351562 46.59375 C 172.539062 45.601562 173.753906 44.632812 174.988281 43.699219 C 176.226562 42.761719 177.484375 41.859375 178.765625 40.984375 C 180.042969 40.109375 181.347656 39.269531 182.667969 38.457031 C 183.992188 37.648438 185.332031 36.871094 186.691406 36.125 C 188.050781 35.382812 189.429688 34.671875 190.824219 33.996094 C 192.21875 33.320312 193.628906 32.675781 195.058594 32.070312 C 196.484375 31.460938 197.925781 30.890625 199.378906 30.355469 C 200.832031 29.816406 202.300781 29.316406 203.78125 28.851562 C 205.257812 28.386719 206.75 27.960938 208.25 27.566406 C 209.75 27.175781 211.257812 26.820312 212.777344 26.503906 C 214.292969 26.1875 215.820312 25.90625 217.351562 25.664062 C 218.882812 25.421875 220.417969 25.21875 221.960938 25.050781 C 223.5 24.882812 225.046875 24.753906 226.59375 24.664062 C 228.140625 24.574219 229.691406 24.519531 231.242188 24.503906 C 232.792969 24.488281 234.339844 24.511719 235.890625 24.574219 Z M 235.890625 24.574219 " fill-opacity="1" fill-rule="nonzero"></path><path fill="#323d8f" d="M 331.871094 152.128906 C 313.734375 207.105469 254.253906 237.078125 199.277344 218.945312 C 144.300781 200.808594 114.328125 141.328125 132.460938 86.351562 C 150.597656 31.375 210.078125 1.402344 265.054688 19.539062 C 320.03125 37.671875 350.003906 97.152344 331.871094 152.128906 Z M 151.925781 92.773438 C 137.332031 137.015625 161.453125 184.882812 205.699219 199.480469 C 249.941406 214.074219 297.808594 189.953125 312.40625 145.707031 C 327 101.464844 302.878906 53.597656 258.632812 39.003906 C 214.390625 24.410156 166.523438 48.53125 151.925781 92.773438 Z M 151.925781 92.773438 " fill-opacity="1" fill-rule="nonzero"></path><path fill="#323d8f" d="M 211.980469 72.511719 C 214.484375 72.527344 217.027344 72.925781 219.53125 73.753906 C 232.464844 78.019531 239.492188 91.96875 235.226562 104.902344 C 230.960938 117.839844 217.015625 124.867188 204.078125 120.597656 C 193.101562 116.976562 186.386719 106.390625 187.203125 95.367188 C 185.878906 97.871094 184.734375 100.507812 183.816406 103.292969 C 175.007812 129.996094 189.511719 158.785156 216.214844 167.59375 C 242.917969 176.402344 271.707031 161.894531 280.515625 135.191406 C 289.324219 108.488281 274.820312 79.699219 248.113281 70.890625 C 235.789062 66.824219 223.023438 67.734375 211.980469 72.511719 Z M 211.980469 72.511719 " fill-opacity="1" fill-rule="nonzero"></path><g clip-path="url(#4f63e6f731)"><g clip-path="url(#df4f917447)"><g transform="matrix(1, 0, 0, 1, 0, 1)"><g clip-path="url(#6627d85fb6)"><g clip-path="url(#0769912c91)"><g clip-path="url(#9402793091)"><g clip-path="url(#1d663e22ee)"><path fill="#ffffff" d="M 233.253906 230.039062 C 295.480469 227.886719 344.359375 175.507812 342.203125 113.273438 C 340.050781 51.039062 287.671875 2.167969 225.4375 4.320312 C 163.203125 6.476562 114.332031 58.851562 116.488281 121.089844 C 118.640625 183.324219 171.023438 232.195312 233.253906 230.039062 Z M 226.078125 22.882812 C 227.625 22.832031 229.167969 22.816406 230.710938 22.839844 C 232.253906 22.859375 233.796875 22.921875 235.339844 23.019531 C 236.878906 23.117188 238.417969 23.253906 239.953125 23.425781 C 241.484375 23.601562 243.015625 23.8125 244.539062 24.058594 C 246.0625 24.308594 247.582031 24.59375 249.089844 24.917969 C 250.601562 25.242188 252.101562 25.601562 253.59375 25.996094 C 255.085938 26.394531 256.566406 26.828125 258.039062 27.296875 C 259.507812 27.765625 260.96875 28.273438 262.414062 28.8125 C 263.859375 29.355469 265.292969 29.929688 266.710938 30.542969 C 268.128906 31.152344 269.53125 31.800781 270.917969 32.480469 C 272.304688 33.160156 273.671875 33.875 275.023438 34.621094 C 276.375 35.371094 277.707031 36.148438 279.019531 36.960938 C 280.332031 37.773438 281.625 38.621094 282.894531 39.496094 C 284.167969 40.371094 285.414062 41.28125 286.640625 42.21875 C 287.867188 43.15625 289.070312 44.121094 290.25 45.121094 C 291.429688 46.117188 292.585938 47.140625 293.714844 48.195312 C 294.84375 49.246094 295.945312 50.328125 297.023438 51.4375 C 298.097656 52.542969 299.144531 53.675781 300.164062 54.835938 C 301.1875 55.996094 302.175781 57.179688 303.140625 58.386719 C 304.101562 59.59375 305.035156 60.824219 305.9375 62.078125 C 306.835938 63.332031 307.707031 64.605469 308.546875 65.902344 C 309.386719 67.199219 310.195312 68.515625 310.96875 69.851562 C 311.742188 71.1875 312.484375 72.539062 313.191406 73.914062 C 313.898438 75.285156 314.574219 76.671875 315.214844 78.078125 C 315.855469 79.484375 316.460938 80.902344 317.03125 82.339844 C 317.601562 83.773438 318.132812 85.222656 318.632812 86.683594 C 319.132812 88.144531 319.59375 89.617188 320.023438 91.101562 C 320.449219 92.585938 320.839844 94.078125 321.191406 95.582031 C 321.546875 97.085938 321.863281 98.597656 322.140625 100.113281 C 322.421875 101.632812 322.664062 103.160156 322.867188 104.6875 C 323.070312 106.21875 323.238281 107.753906 323.367188 109.292969 C 323.496094 110.832031 323.589844 112.371094 323.640625 113.914062 C 323.695312 115.460938 323.710938 117.003906 323.6875 118.546875 C 323.664062 120.089844 323.605469 121.632812 323.507812 123.175781 C 323.410156 124.714844 323.273438 126.253906 323.101562 127.789062 C 322.925781 129.320312 322.714844 130.851562 322.46875 132.375 C 322.21875 133.898438 321.933594 135.414062 321.609375 136.925781 C 321.285156 138.4375 320.925781 139.9375 320.527344 141.429688 C 320.132812 142.921875 319.699219 144.402344 319.230469 145.875 C 318.761719 147.34375 318.253906 148.804688 317.714844 150.25 C 317.171875 151.695312 316.597656 153.128906 315.984375 154.546875 C 315.371094 155.964844 314.726562 157.367188 314.046875 158.753906 C 313.367188 160.140625 312.652344 161.507812 311.90625 162.859375 C 311.15625 164.210938 310.375 165.542969 309.5625 166.855469 C 308.75 168.167969 307.90625 169.460938 307.03125 170.730469 C 306.152344 172.003906 305.246094 173.25 304.308594 174.476562 C 303.371094 175.703125 302.402344 176.90625 301.40625 178.085938 C 300.410156 179.265625 299.386719 180.421875 298.332031 181.550781 C 297.277344 182.679688 296.199219 183.78125 295.089844 184.855469 C 293.984375 185.933594 292.847656 186.980469 291.691406 188 C 290.53125 189.023438 289.347656 190.011719 288.140625 190.976562 C 286.933594 191.9375 285.703125 192.871094 284.449219 193.773438 C 283.195312 194.671875 281.921875 195.542969 280.625 196.382812 C 279.328125 197.222656 278.011719 198.03125 276.675781 198.804688 C 275.339844 199.578125 273.984375 200.320312 272.613281 201.027344 C 271.242188 201.734375 269.851562 202.410156 268.449219 203.050781 C 267.042969 203.691406 265.621094 204.296875 264.1875 204.867188 C 262.753906 205.433594 261.304688 205.96875 259.84375 206.46875 C 258.382812 206.96875 256.910156 207.429688 255.425781 207.859375 C 253.941406 208.285156 252.445312 208.675781 250.945312 209.027344 C 249.441406 209.382812 247.929688 209.699219 246.410156 209.976562 C 244.890625 210.257812 243.367188 210.5 241.835938 210.703125 C 240.308594 210.90625 238.773438 211.074219 237.234375 211.203125 C 235.695312 211.332031 234.152344 211.425781 232.609375 211.476562 C 231.066406 211.53125 229.523438 211.546875 227.980469 211.523438 C 226.433594 211.5 224.894531 211.441406 223.351562 211.34375 C 221.8125 211.246094 220.273438 211.109375 218.738281 210.9375 C 217.203125 210.761719 215.675781 210.550781 214.152344 210.300781 C 212.628906 210.054688 211.109375 209.769531 209.601562 209.445312 C 208.089844 209.121094 206.589844 208.761719 205.097656 208.363281 C 203.605469 207.96875 202.121094 207.535156 200.652344 207.066406 C 199.179688 206.597656 197.722656 206.089844 196.277344 205.550781 C 194.828125 205.007812 193.398438 204.429688 191.980469 203.820312 C 190.5625 203.207031 189.160156 202.5625 187.773438 201.882812 C 186.386719 201.203125 185.019531 200.488281 183.667969 199.742188 C 182.316406 198.992188 180.984375 198.210938 179.671875 197.398438 C 178.359375 196.585938 177.066406 195.742188 175.796875 194.867188 C 174.523438 193.988281 173.273438 193.082031 172.046875 192.144531 C 170.820312 191.207031 169.617188 190.238281 168.4375 189.242188 C 167.257812 188.246094 166.105469 187.222656 164.976562 186.167969 C 163.847656 185.113281 162.746094 184.035156 161.667969 182.925781 C 160.59375 181.820312 159.542969 180.683594 158.523438 179.527344 C 157.503906 178.367188 156.511719 177.183594 155.550781 175.976562 C 154.589844 174.769531 153.65625 173.539062 152.753906 172.285156 C 151.851562 171.03125 150.980469 169.757812 150.144531 168.460938 C 149.304688 167.164062 148.496094 165.847656 147.722656 164.511719 C 146.949219 163.175781 146.207031 161.820312 145.5 160.449219 C 144.789062 159.078125 144.117188 157.6875 143.476562 156.285156 C 142.835938 154.878906 142.230469 153.457031 141.660156 152.023438 C 141.089844 150.585938 140.554688 149.140625 140.058594 147.679688 C 139.558594 146.21875 139.09375 144.746094 138.667969 143.261719 C 138.242188 141.777344 137.851562 140.28125 137.496094 138.78125 C 137.144531 137.277344 136.828125 135.765625 136.546875 134.246094 C 136.269531 132.726562 136.027344 131.203125 135.824219 129.671875 C 135.617188 128.140625 135.453125 126.609375 135.324219 125.070312 C 135.195312 123.53125 135.101562 121.988281 135.046875 120.445312 C 134.996094 118.902344 134.984375 117.359375 135.007812 115.816406 C 135.03125 114.273438 135.09375 112.730469 135.195312 111.191406 C 135.292969 109.652344 135.429688 108.113281 135.605469 106.582031 C 135.78125 105.046875 135.992188 103.519531 136.242188 101.996094 C 136.492188 100.472656 136.78125 98.957031 137.105469 97.449219 C 137.429688 95.9375 137.789062 94.4375 138.1875 92.945312 C 138.585938 91.457031 139.019531 89.972656 139.492188 88.503906 C 139.960938 87.035156 140.46875 85.578125 141.011719 84.132812 C 141.550781 82.6875 142.128906 81.253906 142.742188 79.839844 C 143.351562 78.421875 144 77.019531 144.679688 75.632812 C 145.359375 74.25 146.074219 72.882812 146.824219 71.53125 C 147.570312 70.179688 148.351562 68.851562 149.164062 67.539062 C 149.976562 66.226562 150.824219 64.933594 151.699219 63.664062 C 152.574219 62.394531 153.480469 61.144531 154.421875 59.917969 C 155.359375 58.691406 156.324219 57.492188 157.320312 56.3125 C 158.316406 55.132812 159.34375 53.980469 160.394531 52.851562 C 161.449219 51.722656 162.527344 50.621094 163.636719 49.542969 C 164.742188 48.46875 165.875 47.421875 167.035156 46.402344 C 168.191406 45.382812 169.375 44.390625 170.582031 43.429688 C 171.789062 42.464844 173.019531 41.535156 174.273438 40.632812 C 175.527344 39.730469 176.800781 38.859375 178.09375 38.023438 C 179.390625 37.183594 180.707031 36.375 182.039062 35.601562 C 183.375 34.824219 184.730469 34.085938 186.101562 33.375 C 187.472656 32.667969 188.859375 31.992188 190.265625 31.351562 C 191.667969 30.710938 193.085938 30.105469 194.523438 29.535156 C 195.957031 28.964844 197.402344 28.429688 198.863281 27.929688 C 200.324219 27.429688 201.796875 26.964844 203.277344 26.539062 C 204.761719 26.109375 206.253906 25.71875 207.757812 25.363281 C 209.257812 25.011719 210.769531 24.691406 212.285156 24.414062 C 213.804688 24.132812 215.328125 23.886719 216.859375 23.683594 C 218.386719 23.476562 219.921875 23.308594 221.460938 23.179688 C 222.996094 23.046875 224.539062 22.953125 226.082031 22.898438 Z M 226.078125 22.882812 " fill-opacity="1" fill-rule="nonzero"></path></g></g></g><g clip-path="url(#a8c1d266cc)"><g clip-path="url(#e76eb264ed)"><g clip-path="url(#a5c1730f0e)"><path fill="#ffffff" d="M 152.179688 245.0625 C 153.207031 245.027344 154.203125 244.84375 155.175781 244.511719 C 156.148438 244.179688 157.050781 243.714844 157.886719 243.117188 C 158.71875 242.515625 159.449219 241.808594 160.074219 240.996094 C 160.699219 240.179688 161.191406 239.292969 161.554688 238.332031 C 161.917969 237.371094 162.132812 236.378906 162.199219 235.351562 C 162.265625 234.328125 162.183594 233.316406 161.953125 232.316406 C 161.71875 231.316406 161.347656 230.371094 160.835938 229.480469 C 160.324219 228.589844 159.695312 227.792969 158.945312 227.089844 L 129.203125 199.128906 C 128.714844 198.613281 128.183594 198.152344 127.601562 197.746094 C 127.023438 197.335938 126.40625 196.992188 125.757812 196.714844 C 125.105469 196.433594 124.433594 196.21875 123.742188 196.078125 C 123.046875 195.933594 122.34375 195.859375 121.636719 195.859375 C 120.929688 195.859375 120.226562 195.933594 119.535156 196.074219 C 118.839844 196.21875 118.167969 196.429688 117.515625 196.710938 C 116.867188 196.992188 116.25 197.332031 115.671875 197.738281 C 115.089844 198.144531 114.554688 198.605469 114.070312 199.121094 C 113.582031 199.636719 113.15625 200.195312 112.78125 200.800781 C 112.410156 201.402344 112.101562 202.035156 111.859375 202.703125 C 111.617188 203.367188 111.445312 204.050781 111.34375 204.753906 C 111.238281 205.453125 111.207031 206.15625 111.25 206.863281 C 111.289062 207.570312 111.402344 208.265625 111.585938 208.953125 C 111.769531 209.636719 112.019531 210.296875 112.335938 210.929688 C 112.65625 211.5625 113.035156 212.15625 113.472656 212.710938 C 113.914062 213.265625 114.402344 213.773438 114.945312 214.230469 L 144.691406 242.191406 C 145.695312 243.148438 146.847656 243.878906 148.148438 244.375 C 149.445312 244.875 150.789062 245.101562 152.179688 245.0625 Z M 152.179688 245.0625 " fill-opacity="1" fill-rule="nonzero"></path></g></g></g><g clip-path="url(#68e821875b)"><g clip-path="url(#a191f3d6e5)"><g clip-path="url(#c8b907e41a)"><path fill="#ffffff" d="M 30.832031 346.855469 C 32.019531 346.816406 33.191406 346.660156 34.347656 346.382812 C 35.503906 346.109375 36.621094 345.722656 37.699219 345.226562 C 38.777344 344.726562 39.796875 344.128906 40.757812 343.425781 C 41.714844 342.722656 42.59375 341.929688 43.394531 341.050781 L 117.160156 260.085938 C 117.550781 259.652344 117.921875 259.203125 118.273438 258.734375 C 118.621094 258.269531 118.949219 257.785156 119.25 257.285156 C 119.550781 256.785156 119.828125 256.269531 120.078125 255.742188 C 120.328125 255.214844 120.554688 254.675781 120.753906 254.128906 C 120.953125 253.578125 121.121094 253.019531 121.265625 252.453125 C 121.410156 251.886719 121.523438 251.316406 121.613281 250.738281 C 121.699219 250.160156 121.757812 249.582031 121.789062 248.996094 C 121.820312 248.414062 121.820312 247.832031 121.792969 247.246094 C 121.765625 246.664062 121.710938 246.082031 121.625 245.503906 C 121.542969 244.925781 121.429688 244.355469 121.289062 243.789062 C 121.148438 243.21875 120.980469 242.660156 120.785156 242.113281 C 120.59375 241.5625 120.371094 241.019531 120.121094 240.492188 C 119.875 239.964844 119.601562 239.449219 119.300781 238.945312 C 119.003906 238.445312 118.679688 237.957031 118.332031 237.488281 C 117.988281 237.019531 117.617188 236.566406 117.226562 236.132812 C 116.835938 235.699219 116.425781 235.285156 115.992188 234.890625 C 115.5625 234.5 115.109375 234.125 114.644531 233.777344 C 114.175781 233.429688 113.691406 233.101562 113.191406 232.800781 C 112.691406 232.5 112.175781 232.222656 111.648438 231.972656 C 111.121094 231.71875 110.582031 231.496094 110.035156 231.296875 C 109.484375 231.097656 108.925781 230.929688 108.359375 230.785156 C 107.796875 230.640625 107.222656 230.527344 106.644531 230.4375 C 106.066406 230.351562 105.488281 230.292969 104.90625 230.261719 C 104.320312 230.230469 103.738281 230.230469 103.152344 230.257812 C 102.570312 230.285156 101.988281 230.339844 101.414062 230.421875 C 100.835938 230.507812 100.261719 230.621094 99.695312 230.761719 C 99.128906 230.902344 98.570312 231.066406 98.019531 231.261719 C 97.46875 231.457031 96.929688 231.679688 96.398438 231.929688 C 95.871094 232.175781 95.355469 232.449219 94.855469 232.75 C 94.351562 233.046875 93.867188 233.371094 93.394531 233.71875 C 92.925781 234.0625 92.472656 234.433594 92.039062 234.824219 C 91.605469 235.214844 91.191406 235.625 90.800781 236.058594 L 17.035156 317.023438 C 16.445312 317.667969 15.910156 318.351562 15.421875 319.078125 C 14.933594 319.800781 14.503906 320.554688 14.125 321.34375 C 13.75 322.128906 13.433594 322.941406 13.175781 323.773438 C 12.917969 324.609375 12.722656 325.457031 12.589844 326.316406 C 12.457031 327.179688 12.386719 328.046875 12.382812 328.921875 C 12.378906 329.792969 12.433594 330.660156 12.558594 331.523438 C 12.679688 332.390625 12.863281 333.238281 13.109375 334.074219 C 13.355469 334.914062 13.664062 335.726562 14.03125 336.519531 C 14.394531 337.3125 14.816406 338.070312 15.296875 338.800781 C 15.773438 339.53125 16.300781 340.222656 16.882812 340.875 C 17.460938 341.527344 18.085938 342.132812 18.753906 342.695312 C 19.421875 343.253906 20.128906 343.765625 20.871094 344.222656 C 21.613281 344.679688 22.386719 345.078125 23.1875 345.421875 C 23.992188 345.765625 24.8125 346.050781 25.65625 346.273438 C 26.5 346.496094 27.355469 346.65625 28.222656 346.753906 C 29.089844 346.851562 29.957031 346.882812 30.832031 346.855469 Z M 30.832031 346.855469 " fill-opacity="1" fill-rule="nonzero"></path></g></g></g><g clip-path="url(#59dc9b63a0)"><g clip-path="url(#127b458a14)"><g clip-path="url(#bf15f53c48)"><path fill="#ffffff" d="M 232.285156 196.664062 C 246.820312 196.164062 265.894531 191.332031 285.910156 174.796875 C 303.488281 160.289062 311.070312 138.636719 307.851562 112.203125 C 306.316406 99.980469 302.988281 88.265625 297.871094 77.058594 C 297.707031 76.734375 297.515625 76.425781 297.292969 76.136719 C 297.070312 75.847656 296.824219 75.582031 296.546875 75.34375 C 296.273438 75.105469 295.976562 74.894531 295.664062 74.710938 C 295.347656 74.527344 295.015625 74.378906 294.671875 74.261719 C 294.324219 74.144531 293.972656 74.0625 293.609375 74.015625 C 293.25 73.96875 292.886719 73.953125 292.523438 73.976562 C 292.160156 74 291.800781 74.058594 291.449219 74.152344 C 291.097656 74.246094 290.757812 74.375 290.429688 74.535156 C 290.101562 74.695312 289.792969 74.886719 289.503906 75.105469 C 289.214844 75.328125 288.949219 75.574219 288.707031 75.847656 C 288.464844 76.121094 288.253906 76.414062 288.070312 76.730469 C 287.886719 77.046875 287.734375 77.375 287.613281 77.71875 C 287.496094 78.0625 287.410156 78.417969 287.359375 78.777344 C 287.3125 79.140625 287.296875 79.503906 287.320312 79.867188 C 287.339844 80.230469 287.398438 80.589844 287.488281 80.941406 C 287.582031 81.292969 287.707031 81.632812 287.863281 81.960938 C 292.445312 92.132812 295.433594 102.75 296.824219 113.820312 C 299.511719 136.472656 293.453125 154.078125 278.820312 166.179688 C 242.683594 196.039062 210.429688 182.375 210.105469 182.230469 C 209.769531 182.074219 209.421875 181.953125 209.0625 181.867188 C 208.699219 181.78125 208.335938 181.730469 207.964844 181.714844 C 207.59375 181.703125 207.226562 181.722656 206.859375 181.785156 C 206.496094 181.84375 206.136719 181.9375 205.789062 182.070312 C 205.445312 182.199219 205.113281 182.363281 204.800781 182.5625 C 204.484375 182.757812 204.191406 182.984375 203.921875 183.238281 C 203.65625 183.492188 203.414062 183.773438 203.199219 184.074219 C 202.988281 184.378906 202.804688 184.699219 202.65625 185.039062 C 202.507812 185.378906 202.390625 185.730469 202.3125 186.09375 C 202.234375 186.453125 202.191406 186.820312 202.183594 187.191406 C 202.179688 187.5625 202.210938 187.929688 202.277344 188.296875 C 202.34375 188.660156 202.445312 189.015625 202.585938 189.359375 C 202.722656 189.703125 202.894531 190.03125 203.097656 190.339844 C 203.300781 190.648438 203.53125 190.9375 203.792969 191.199219 C 204.054688 191.464844 204.335938 191.699219 204.644531 191.90625 C 204.953125 192.113281 205.277344 192.289062 205.621094 192.429688 C 206.429688 192.8125 216.773438 197.203125 232.285156 196.664062 Z M 232.285156 196.664062 " fill-opacity="1" fill-rule="nonzero"></path></g></g></g></g></g></g></g></g></g></svg></svg></g></g></svg>