<svg xmlns="http://www.w3.org/2000/svg" xmlns:xlink="http://www.w3.org/1999/xlink" width="512" zoomAndPan="magnify" viewBox="0 0 384 91.5" height="122" preserveAspectRatio="xMidYMid meet" version="1.0"><defs><g/><clipPath id="d2466b858a"><path d="M 294 19 L 348 19 L 348 72 L 294 72 Z M 294 19 " clip-rule="nonzero"/></clipPath><clipPath id="471c743da8"><path d="M 294.421875 21.039062 L 345.859375 19.257812 L 347.613281 69.949219 L 296.175781 71.730469 Z M 294.421875 21.039062 " clip-rule="nonzero"/></clipPath><clipPath id="cc12bbe41b"><path d="M 18 0.09375 L 53 0.09375 L 53 35 L 18 35 Z M 18 0.09375 " clip-rule="nonzero"/></clipPath><clipPath id="58e2cde611"><path d="M 0.421875 2.039062 L 51.859375 0.257812 L 53.613281 50.949219 L 2.175781 52.730469 Z M 0.421875 2.039062 " clip-rule="nonzero"/></clipPath><clipPath id="092361ab0d"><path d="M 51.578125 0.269531 L 0.140625 2.050781 L 1.894531 52.742188 L 53.335938 50.960938 Z M 51.578125 0.269531 " clip-rule="nonzero"/></clipPath><clipPath id="a2c39bbf3e"><path d="M 17 29 L 25 29 L 25 38 L 17 38 Z M 17 29 " clip-rule="nonzero"/></clipPath><clipPath id="bc11591532"><path d="M 0.421875 2.039062 L 51.859375 0.257812 L 53.613281 50.949219 L 2.175781 52.730469 Z M 0.421875 2.039062 " clip-rule="nonzero"/></clipPath><clipPath id="2e6fdf58dd"><path d="M 51.578125 0.269531 L 0.140625 2.050781 L 1.894531 52.742188 L 53.335938 50.960938 Z M 51.578125 0.269531 " clip-rule="nonzero"/></clipPath><clipPath id="d08f9b7d7f"><path d="M 2 35 L 19 35 L 19 52.847656 L 2 52.847656 Z M 2 35 " clip-rule="nonzero"/></clipPath><clipPath id="8360a5d483"><path d="M 0.421875 2.039062 L 51.859375 0.257812 L 53.613281 50.949219 L 2.175781 52.730469 Z M 0.421875 2.039062 " clip-rule="nonzero"/></clipPath><clipPath id="b3e22d4e87"><path d="M 51.578125 0.269531 L 0.140625 2.050781 L 1.894531 52.742188 L 53.335938 50.960938 Z M 51.578125 0.269531 " clip-rule="nonzero"/></clipPath><clipPath id="4d1602654d"><path d="M 30 11 L 48 11 L 48 30 L 30 30 Z M 30 11 " clip-rule="nonzero"/></clipPath><clipPath id="bcb6e7a010"><path d="M 0.421875 2.039062 L 51.859375 0.257812 L 53.613281 50.949219 L 2.175781 52.730469 Z M 0.421875 2.039062 " clip-rule="nonzero"/></clipPath><clipPath id="9f176892d3"><path d="M 51.578125 0.269531 L 0.140625 2.050781 L 1.894531 52.742188 L 53.335938 50.960938 Z M 51.578125 0.269531 " clip-rule="nonzero"/></clipPath><clipPath id="4e87164bd3"><rect x="0" width="54" y="0" height="53"/></clipPath></defs><g fill="#323d8f" fill-opacity="1"><g transform="translate(37.308957, 71.431535)"><g><path d="M 20.296875 0.65625 C 16.773438 0.65625 13.367188 0.15625 10.078125 -0.84375 C 6.796875 -1.84375 4.195312 -3.171875 2.28125 -4.828125 L 5.21875 -11.421875 C 7.09375 -9.941406 9.390625 -8.734375 12.109375 -7.796875 C 14.828125 -6.859375 17.554688 -6.390625 20.296875 -6.390625 C 23.691406 -6.390625 26.222656 -6.929688 27.890625 -8.015625 C 29.566406 -9.109375 30.40625 -10.546875 30.40625 -12.328125 C 30.40625 -13.640625 29.9375 -14.71875 29 -15.5625 C 28.070312 -16.414062 26.890625 -17.082031 25.453125 -17.5625 C 24.015625 -18.039062 22.054688 -18.582031 19.578125 -19.1875 C 16.097656 -20.007812 13.28125 -20.832031 11.125 -21.65625 C 8.96875 -22.488281 7.117188 -23.785156 5.578125 -25.546875 C 4.035156 -27.304688 3.265625 -29.691406 3.265625 -32.703125 C 3.265625 -35.222656 3.945312 -37.515625 5.3125 -39.578125 C 6.6875 -41.648438 8.753906 -43.296875 11.515625 -44.515625 C 14.273438 -45.734375 17.660156 -46.34375 21.671875 -46.34375 C 24.453125 -46.34375 27.191406 -45.992188 29.890625 -45.296875 C 32.585938 -44.597656 34.914062 -43.597656 36.875 -42.296875 L 34.203125 -35.703125 C 32.203125 -36.878906 30.113281 -37.769531 27.9375 -38.375 C 25.757812 -38.988281 23.648438 -39.296875 21.609375 -39.296875 C 18.253906 -39.296875 15.757812 -38.726562 14.125 -37.59375 C 12.5 -36.457031 11.6875 -34.957031 11.6875 -33.09375 C 11.6875 -31.78125 12.148438 -30.710938 13.078125 -29.890625 C 14.015625 -29.066406 15.203125 -28.414062 16.640625 -27.9375 C 18.078125 -27.457031 20.035156 -26.910156 22.515625 -26.296875 C 25.910156 -25.515625 28.695312 -24.695312 30.875 -23.84375 C 33.050781 -23 34.910156 -21.707031 36.453125 -19.96875 C 37.992188 -18.226562 38.765625 -15.878906 38.765625 -12.921875 C 38.765625 -10.398438 38.078125 -8.113281 36.703125 -6.0625 C 35.335938 -4.019531 33.257812 -2.390625 30.46875 -1.171875 C 27.6875 0.046875 24.296875 0.65625 20.296875 0.65625 Z M 20.296875 0.65625 "/></g></g></g><g fill="#323d8f" fill-opacity="1"><g transform="translate(74.773, 71.431535)"><g><path d="M 38.109375 -17.234375 C 38.109375 -16.660156 38.066406 -15.851562 37.984375 -14.8125 L 10.640625 -14.8125 C 11.117188 -12.25 12.367188 -10.21875 14.390625 -8.71875 C 16.410156 -7.21875 18.921875 -6.46875 21.921875 -6.46875 C 25.753906 -6.46875 28.910156 -7.726562 31.390625 -10.25 L 35.765625 -5.21875 C 34.203125 -3.351562 32.222656 -1.941406 29.828125 -0.984375 C 27.429688 -0.0234375 24.734375 0.453125 21.734375 0.453125 C 17.898438 0.453125 14.523438 -0.304688 11.609375 -1.828125 C 8.703125 -3.347656 6.453125 -5.46875 4.859375 -8.1875 C 3.273438 -10.90625 2.484375 -13.984375 2.484375 -17.421875 C 2.484375 -20.816406 3.253906 -23.875 4.796875 -26.59375 C 6.335938 -29.3125 8.476562 -31.429688 11.21875 -32.953125 C 13.96875 -34.484375 17.0625 -35.25 20.5 -35.25 C 23.882812 -35.25 26.914062 -34.492188 29.59375 -32.984375 C 32.269531 -31.484375 34.359375 -29.375 35.859375 -26.65625 C 37.359375 -23.9375 38.109375 -20.796875 38.109375 -17.234375 Z M 20.5 -28.71875 C 17.882812 -28.71875 15.671875 -27.941406 13.859375 -26.390625 C 12.054688 -24.847656 10.960938 -22.796875 10.578125 -20.234375 L 30.34375 -20.234375 C 30 -22.753906 28.929688 -24.796875 27.140625 -26.359375 C 25.359375 -27.929688 23.144531 -28.71875 20.5 -28.71875 Z M 20.5 -28.71875 "/></g></g></g><g fill="#323d8f" fill-opacity="1"><g transform="translate(111.780162, 71.431535)"><g><path d="M 25.125 -35.25 C 29.519531 -35.25 33.046875 -33.960938 35.703125 -31.390625 C 38.359375 -28.828125 39.6875 -25.019531 39.6875 -19.96875 L 39.6875 0 L 31.515625 0 L 31.515625 -18.921875 C 31.515625 -21.972656 30.796875 -24.269531 29.359375 -25.8125 C 27.929688 -27.351562 25.890625 -28.125 23.234375 -28.125 C 20.234375 -28.125 17.863281 -27.222656 16.125 -25.421875 C 14.382812 -23.617188 13.515625 -21.019531 13.515625 -17.625 L 13.515625 0 L 5.359375 0 L 5.359375 -34.859375 L 13.125 -34.859375 L 13.125 -30.34375 C 14.46875 -31.957031 16.160156 -33.175781 18.203125 -34 C 20.253906 -34.832031 22.5625 -35.25 25.125 -35.25 Z M 25.125 -35.25 "/></g></g></g><g fill="#323d8f" fill-opacity="1"><g transform="translate(152.899227, 71.431535)"><g><path d="M 26.296875 -1.890625 C 25.335938 -1.109375 24.171875 -0.519531 22.796875 -0.125 C 21.429688 0.257812 19.988281 0.453125 18.46875 0.453125 C 14.644531 0.453125 11.6875 -0.546875 9.59375 -2.546875 C 7.507812 -4.546875 6.46875 -7.460938 6.46875 -11.296875 L 6.46875 -28.0625 L 0.71875 -28.0625 L 0.71875 -34.59375 L 6.46875 -34.59375 L 6.46875 -42.546875 L 14.625 -42.546875 L 14.625 -34.59375 L 23.953125 -34.59375 L 23.953125 -28.0625 L 14.625 -28.0625 L 14.625 -11.484375 C 14.625 -9.785156 15.035156 -8.488281 15.859375 -7.59375 C 16.679688 -6.707031 17.878906 -6.265625 19.453125 -6.265625 C 21.273438 -6.265625 22.796875 -6.742188 24.015625 -7.703125 Z M 26.296875 -1.890625 "/></g></g></g><g fill="#323d8f" fill-opacity="1"><g transform="translate(176.983238, 71.431535)"><g><path d="M 5.359375 -34.859375 L 13.515625 -34.859375 L 13.515625 0 L 5.359375 0 Z M 9.46875 -40.59375 C 7.988281 -40.59375 6.75 -41.0625 5.75 -42 C 4.75 -42.9375 4.25 -44.097656 4.25 -45.484375 C 4.25 -46.878906 4.75 -48.046875 5.75 -48.984375 C 6.75 -49.921875 7.988281 -50.390625 9.46875 -50.390625 C 10.945312 -50.390625 12.1875 -49.941406 13.1875 -49.046875 C 14.1875 -48.148438 14.6875 -47.03125 14.6875 -45.6875 C 14.6875 -44.25 14.195312 -43.039062 13.21875 -42.0625 C 12.238281 -41.082031 10.988281 -40.59375 9.46875 -40.59375 Z M 9.46875 -40.59375 "/></g></g></g><g fill="#323d8f" fill-opacity="1"><g transform="translate(192.256011, 71.431535)"><g><path d="M 25.125 -35.25 C 29.519531 -35.25 33.046875 -33.960938 35.703125 -31.390625 C 38.359375 -28.828125 39.6875 -25.019531 39.6875 -19.96875 L 39.6875 0 L 31.515625 0 L 31.515625 -18.921875 C 31.515625 -21.972656 30.796875 -24.269531 29.359375 -25.8125 C 27.929688 -27.351562 25.890625 -28.125 23.234375 -28.125 C 20.234375 -28.125 17.863281 -27.222656 16.125 -25.421875 C 14.382812 -23.617188 13.515625 -21.019531 13.515625 -17.625 L 13.515625 0 L 5.359375 0 L 5.359375 -34.859375 L 13.125 -34.859375 L 13.125 -30.34375 C 14.46875 -31.957031 16.160156 -33.175781 18.203125 -34 C 20.253906 -34.832031 22.5625 -35.25 25.125 -35.25 Z M 25.125 -35.25 "/></g></g></g><g fill="#323d8f" fill-opacity="1"><g transform="translate(233.701418, 71.431535)"><g><path d="M 38.109375 -17.234375 C 38.109375 -16.660156 38.066406 -15.851562 37.984375 -14.8125 L 10.640625 -14.8125 C 11.117188 -12.25 12.367188 -10.21875 14.390625 -8.71875 C 16.410156 -7.21875 18.921875 -6.46875 21.921875 -6.46875 C 25.753906 -6.46875 28.910156 -7.726562 31.390625 -10.25 L 35.765625 -5.21875 C 34.203125 -3.351562 32.222656 -1.941406 29.828125 -0.984375 C 27.429688 -0.0234375 24.734375 0.453125 21.734375 0.453125 C 17.898438 0.453125 14.523438 -0.304688 11.609375 -1.828125 C 8.703125 -3.347656 6.453125 -5.46875 4.859375 -8.1875 C 3.273438 -10.90625 2.484375 -13.984375 2.484375 -17.421875 C 2.484375 -20.816406 3.253906 -23.875 4.796875 -26.59375 C 6.335938 -29.3125 8.476562 -31.429688 11.21875 -32.953125 C 13.96875 -34.484375 17.0625 -35.25 20.5 -35.25 C 23.882812 -35.25 26.914062 -34.492188 29.59375 -32.984375 C 32.269531 -31.484375 34.359375 -29.375 35.859375 -26.65625 C 37.359375 -23.9375 38.109375 -20.796875 38.109375 -17.234375 Z M 20.5 -28.71875 C 17.882812 -28.71875 15.671875 -27.941406 13.859375 -26.390625 C 12.054688 -24.847656 10.960938 -22.796875 10.578125 -20.234375 L 30.34375 -20.234375 C 30 -22.753906 28.929688 -24.796875 27.140625 -26.359375 C 25.359375 -27.929688 23.144531 -28.71875 20.5 -28.71875 Z M 20.5 -28.71875 "/></g></g></g><g fill="#323d8f" fill-opacity="1"><g transform="translate(270.70858, 71.431535)"><g><path d="M 5.359375 -48.421875 L 13.515625 -48.421875 L 13.515625 0 L 5.359375 0 Z M 5.359375 -48.421875 "/></g></g></g><path fill="#ffffff" d="M 330.085938 22.765625 C 331.023438 22.804688 331.949219 22.933594 332.863281 23.152344 C 333.777344 23.371094 334.664062 23.679688 335.515625 24.070312 C 336.371094 24.464844 337.179688 24.9375 337.9375 25.492188 C 338.699219 26.042969 339.398438 26.664062 340.039062 27.355469 C 340.675781 28.046875 341.242188 28.792969 341.730469 29.59375 C 342.222656 30.398438 342.632812 31.238281 342.957031 32.121094 C 343.28125 33.003906 343.519531 33.910156 343.664062 34.835938 C 343.8125 35.765625 343.867188 36.699219 343.832031 37.640625 C 343.792969 38.578125 343.664062 39.507812 343.445312 40.421875 C 343.226562 41.335938 342.921875 42.21875 342.527344 43.074219 C 342.132812 43.925781 341.660156 44.734375 341.105469 45.496094 C 340.554688 46.257812 339.933594 46.957031 339.242188 47.59375 C 338.550781 48.230469 337.804688 48.796875 337.003906 49.289062 C 336.203125 49.777344 335.359375 50.1875 334.476562 50.511719 C 333.59375 50.839844 332.6875 51.074219 331.761719 51.222656 C 330.832031 51.367188 329.898438 51.425781 328.957031 51.386719 C 328.019531 51.351562 327.089844 51.222656 326.175781 51.003906 C 325.261719 50.78125 324.378906 50.476562 323.523438 50.082031 C 322.671875 49.6875 321.863281 49.214844 321.101562 48.664062 C 320.34375 48.109375 319.644531 47.488281 319.003906 46.796875 C 318.367188 46.105469 317.800781 45.359375 317.308594 44.558594 C 316.820312 43.757812 316.410156 42.914062 316.085938 42.03125 C 315.757812 41.152344 315.523438 40.246094 315.375 39.316406 C 315.230469 38.386719 315.175781 37.453125 315.210938 36.515625 C 315.25 35.574219 315.375 34.648438 315.597656 33.734375 C 315.816406 32.820312 316.121094 31.933594 316.515625 31.082031 C 316.910156 30.226562 317.382812 29.417969 317.9375 28.660156 C 318.488281 27.898438 319.109375 27.199219 319.800781 26.558594 C 320.492188 25.921875 321.238281 25.355469 322.039062 24.867188 C 322.839844 24.375 323.683594 23.964844 324.566406 23.640625 C 325.445312 23.316406 326.351562 23.078125 327.28125 22.933594 C 328.210938 22.785156 329.144531 22.730469 330.085938 22.765625 Z M 330.085938 22.765625 " fill-opacity="1" fill-rule="nonzero"/><path fill="#323d8f" d="M 344.59375 42.046875 C 341.851562 50.359375 332.859375 54.890625 324.550781 52.148438 C 316.238281 49.40625 311.707031 40.414062 314.449219 32.105469 C 317.191406 23.796875 326.183594 19.265625 334.492188 22.007812 C 342.804688 24.746094 347.332031 33.738281 344.59375 42.046875 Z M 317.390625 33.074219 C 315.1875 39.765625 318.832031 47 325.519531 49.207031 C 332.207031 51.410156 339.445312 47.765625 341.648438 41.078125 C 343.855469 34.390625 340.210938 27.15625 333.523438 24.949219 C 326.835938 22.742188 319.597656 26.386719 317.390625 33.074219 Z M 317.390625 33.074219 " fill-opacity="1" fill-rule="nonzero"/><path fill="#323d8f" d="M 326.46875 30.011719 C 326.847656 30.015625 327.230469 30.078125 327.609375 30.203125 C 329.566406 30.847656 330.628906 32.953125 329.984375 34.910156 C 329.339844 36.863281 327.230469 37.925781 325.273438 37.28125 C 323.617188 36.734375 322.601562 35.136719 322.726562 33.46875 C 322.523438 33.847656 322.351562 34.246094 322.210938 34.667969 C 320.878906 38.703125 323.074219 43.054688 327.109375 44.386719 C 331.148438 45.71875 335.5 43.523438 336.828125 39.488281 C 338.160156 35.453125 335.96875 31.101562 331.933594 29.769531 C 330.070312 29.152344 328.140625 29.292969 326.46875 30.011719 Z M 326.46875 30.011719 " fill-opacity="1" fill-rule="nonzero"/><g clip-path="url(#d2466b858a)"><g clip-path="url(#471c743da8)"><g transform="matrix(1, 0, 0, 1, 294, 19)"><g clip-path="url(#4e87164bd3)"><g clip-path="url(#cc12bbe41b)"><g clip-path="url(#58e2cde611)"><g clip-path="url(#092361ab0d)"><path fill="#323d8f" d="M 35.6875 34.972656 C 45.089844 34.648438 52.480469 26.730469 52.152344 17.324219 C 51.828125 7.917969 43.910156 0.53125 34.503906 0.855469 C 25.097656 1.183594 17.710938 9.097656 18.035156 18.507812 C 18.363281 27.914062 26.28125 35.300781 35.6875 34.972656 Z M 34.601562 3.664062 C 35.539062 3.628906 36.46875 3.691406 37.390625 3.839844 C 38.316406 3.992188 39.214844 4.230469 40.09375 4.558594 C 40.96875 4.886719 41.808594 5.296875 42.601562 5.789062 C 43.398438 6.285156 44.140625 6.847656 44.824219 7.488281 C 45.507812 8.128906 46.125 8.828125 46.671875 9.585938 C 47.21875 10.347656 47.6875 11.152344 48.074219 12.003906 C 48.460938 12.855469 48.761719 13.738281 48.976562 14.652344 C 49.191406 15.5625 49.316406 16.484375 49.347656 17.421875 C 49.378906 18.359375 49.320312 19.289062 49.171875 20.210938 C 49.019531 21.136719 48.78125 22.035156 48.453125 22.914062 C 48.125 23.789062 47.710938 24.628906 47.21875 25.421875 C 46.726562 26.21875 46.160156 26.960938 45.523438 27.644531 C 44.882812 28.328125 44.183594 28.945312 43.421875 29.492188 C 42.664062 30.039062 41.855469 30.507812 41.003906 30.894531 C 40.152344 31.28125 39.269531 31.582031 38.359375 31.796875 C 37.449219 32.011719 36.523438 32.136719 35.589844 32.167969 C 34.652344 32.199219 33.722656 32.140625 32.796875 31.992188 C 31.875 31.839844 30.972656 31.601562 30.097656 31.273438 C 29.21875 30.945312 28.382812 30.535156 27.585938 30.039062 C 26.789062 29.546875 26.050781 28.980469 25.367188 28.34375 C 24.679688 27.703125 24.066406 27.003906 23.519531 26.242188 C 22.972656 25.484375 22.503906 24.679688 22.117188 23.824219 C 21.726562 22.972656 21.425781 22.089844 21.210938 21.179688 C 20.996094 20.269531 20.875 19.34375 20.84375 18.410156 C 20.8125 17.472656 20.871094 16.542969 21.023438 15.621094 C 21.175781 14.695312 21.414062 13.796875 21.742188 12.921875 C 22.070312 12.042969 22.484375 11.207031 22.976562 10.410156 C 23.46875 9.617188 24.035156 8.875 24.671875 8.191406 C 25.3125 7.507812 26.011719 6.890625 26.769531 6.34375 C 27.53125 5.796875 28.335938 5.332031 29.1875 4.941406 C 30.039062 4.554688 30.921875 4.253906 31.832031 4.039062 C 32.742188 3.824219 33.667969 3.699219 34.601562 3.664062 Z M 34.601562 3.664062 " fill-opacity="1" fill-rule="nonzero"/></g></g></g><g clip-path="url(#a2c39bbf3e)"><g clip-path="url(#bc11591532)"><g clip-path="url(#2e6fdf58dd)"><path fill="#323d8f" d="M 23.429688 37.242188 C 23.75 37.234375 24.035156 37.136719 24.292969 36.949219 C 24.550781 36.765625 24.738281 36.523438 24.847656 36.226562 C 24.960938 35.929688 24.980469 35.625 24.910156 35.316406 C 24.835938 35.007812 24.683594 34.746094 24.453125 34.527344 L 19.957031 30.300781 C 19.808594 30.144531 19.636719 30.023438 19.4375 29.9375 C 19.238281 29.851562 19.03125 29.808594 18.816406 29.808594 C 18.597656 29.808594 18.390625 29.851562 18.191406 29.9375 C 17.992188 30.023438 17.820312 30.144531 17.671875 30.300781 C 17.523438 30.457031 17.410156 30.636719 17.335938 30.839844 C 17.261719 31.046875 17.234375 31.253906 17.246094 31.472656 C 17.257812 31.6875 17.3125 31.890625 17.410156 32.085938 C 17.507812 32.277344 17.636719 32.445312 17.804688 32.582031 L 22.300781 36.808594 C 22.617188 37.113281 22.992188 37.257812 23.429688 37.242188 Z M 23.429688 37.242188 " fill-opacity="1" fill-rule="nonzero"/></g></g></g><g clip-path="url(#d08f9b7d7f)"><g clip-path="url(#8360a5d483)"><g clip-path="url(#b3e22d4e87)"><path fill="#323d8f" d="M 5.089844 52.628906 C 5.847656 52.605469 6.480469 52.3125 6.988281 51.753906 L 18.136719 39.515625 C 18.378906 39.25 18.558594 38.949219 18.679688 38.613281 C 18.804688 38.277344 18.855469 37.933594 18.839844 37.574219 C 18.820312 37.21875 18.738281 36.878906 18.585938 36.554688 C 18.433594 36.230469 18.226562 35.949219 17.960938 35.707031 C 17.699219 35.464844 17.398438 35.285156 17.0625 35.164062 C 16.726562 35.042969 16.378906 34.988281 16.019531 35.007812 C 15.664062 35.023438 15.324219 35.105469 15 35.257812 C 14.675781 35.410156 14.394531 35.621094 14.152344 35.882812 L 3.003906 48.121094 C 2.640625 48.523438 2.414062 48.988281 2.332031 49.527344 C 2.25 50.0625 2.324219 50.574219 2.550781 51.066406 C 2.777344 51.558594 3.121094 51.949219 3.585938 52.230469 C 4.046875 52.515625 4.546875 52.648438 5.089844 52.628906 Z M 5.089844 52.628906 " fill-opacity="1" fill-rule="nonzero"/></g></g></g><g clip-path="url(#4d1602654d)"><g clip-path="url(#bcb6e7a010)"><g clip-path="url(#9f176892d3)"><path fill="#323d8f" d="M 35.539062 29.929688 C 37.738281 29.851562 40.617188 29.125 43.644531 26.625 C 46.300781 24.429688 47.449219 21.160156 46.960938 17.164062 C 46.730469 15.316406 46.226562 13.542969 45.453125 11.851562 C 45.347656 11.644531 45.1875 11.503906 44.96875 11.429688 C 44.75 11.355469 44.535156 11.367188 44.328125 11.46875 C 44.121094 11.570312 43.976562 11.730469 43.902344 11.949219 C 43.828125 12.167969 43.839844 12.382812 43.941406 12.59375 C 44.632812 14.128906 45.082031 15.734375 45.292969 17.40625 C 45.699219 20.832031 44.785156 23.492188 42.574219 25.320312 C 37.109375 29.835938 32.234375 27.769531 32.1875 27.746094 C 31.972656 27.648438 31.753906 27.640625 31.535156 27.722656 C 31.3125 27.804688 31.15625 27.957031 31.0625 28.171875 C 30.964844 28.386719 30.960938 28.605469 31.050781 28.824219 C 31.136719 29.042969 31.289062 29.199219 31.507812 29.289062 C 31.632812 29.347656 33.195312 30.011719 35.539062 29.929688 Z M 35.539062 29.929688 " fill-opacity="1" fill-rule="nonzero"/></g></g></g></g></g></g></g></svg>