<svg xmlns="http://www.w3.org/2000/svg" xmlns:xlink="http://www.w3.org/1999/xlink" width="512" zoomAndPan="magnify" viewBox="0 0 384 91.5" height="122" preserveAspectRatio="xMidYMid meet" version="1.0"><defs><g/><clipPath id="d8719ced47"><path d="M 0.996094 0.902344 L 253 0.902344 L 253 67.257812 L 0.996094 67.257812 Z M 0.996094 0.902344 " clip-rule="nonzero"/></clipPath><clipPath id="ca259a5cf7"><rect x="0" width="253" y="0" height="68"/></clipPath><clipPath id="2f458a897c"><path d="M 259 3 L 307 3 L 307 51 L 259 51 Z M 259 3 " clip-rule="nonzero"/></clipPath><clipPath id="e260ab76cf"><path d="M 258.953125 5.054688 L 305.25 3.453125 L 306.824219 48.90625 L 260.527344 50.511719 Z M 258.953125 5.054688 " clip-rule="nonzero"/></clipPath><clipPath id="a766322b53"><path d="M 15 0.289062 L 47 0.289062 L 47 32 L 15 32 Z M 15 0.289062 " clip-rule="nonzero"/></clipPath><clipPath id="8cff8a4b84"><path d="M -0.046875 2.054688 L 46.25 0.453125 L 47.824219 45.90625 L 1.527344 47.511719 Z M -0.046875 2.054688 " clip-rule="nonzero"/></clipPath><clipPath id="58e4256c2e"><path d="M 46.210938 0.453125 L -0.0859375 2.058594 L 1.488281 47.511719 L 47.785156 45.910156 Z M 46.210938 0.453125 " clip-rule="nonzero"/></clipPath><clipPath id="c58112b187"><path d="M 15 27 L 23 27 L 23 34 L 15 34 Z M 15 27 " clip-rule="nonzero"/></clipPath><clipPath id="7a1f86b56e"><path d="M -0.046875 2.054688 L 46.25 0.453125 L 47.824219 45.90625 L 1.527344 47.511719 Z M -0.046875 2.054688 " clip-rule="nonzero"/></clipPath><clipPath id="ee10fd7b8e"><path d="M 46.210938 0.453125 L -0.0859375 2.058594 L 1.488281 47.511719 L 47.785156 45.910156 Z M 46.210938 0.453125 " clip-rule="nonzero"/></clipPath><clipPath id="1d475cd6f7"><path d="M 1 31 L 17 31 L 17 47.550781 L 1 47.550781 Z M 1 31 " clip-rule="nonzero"/></clipPath><clipPath id="f6a6734fe6"><path d="M -0.046875 2.054688 L 46.25 0.453125 L 47.824219 45.90625 L 1.527344 47.511719 Z M -0.046875 2.054688 " clip-rule="nonzero"/></clipPath><clipPath id="f6b3ee0676"><path d="M 46.210938 0.453125 L -0.0859375 2.058594 L 1.488281 47.511719 L 47.785156 45.910156 Z M 46.210938 0.453125 " clip-rule="nonzero"/></clipPath><clipPath id="3382295e7f"><path d="M 27 10 L 43 10 L 43 28 L 27 28 Z M 27 10 " clip-rule="nonzero"/></clipPath><clipPath id="23842a7567"><path d="M -0.046875 2.054688 L 46.25 0.453125 L 47.824219 45.90625 L 1.527344 47.511719 Z M -0.046875 2.054688 " clip-rule="nonzero"/></clipPath><clipPath id="a2b8b7539d"><path d="M 46.210938 0.453125 L -0.0859375 2.058594 L 1.488281 47.511719 L 47.785156 45.910156 Z M 46.210938 0.453125 " clip-rule="nonzero"/></clipPath><clipPath id="42afc590ee"><rect x="0" width="48" y="0" height="48"/></clipPath><clipPath id="4d5434fe83"><rect x="0" width="308" y="0" height="68"/></clipPath></defs><g transform="matrix(1, 0, 0, 1, 38, 17)"><g clip-path="url(#4d5434fe83)"><g clip-path="url(#d8719ced47)"><g transform="matrix(1, 0, 0, 1, 0, 0.000000000000003553)"><g clip-path="url(#ca259a5cf7)"><g fill="#323d8f" fill-opacity="1"><g transform="translate(1.311251, 49.93645)"><g><path d="M 21.859375 1.625 C 18.203125 1.625 14.882812 0.984375 11.90625 -0.296875 C 8.925781 -1.578125 6.507812 -3.410156 4.65625 -5.796875 C 2.8125 -8.191406 1.71875 -11.003906 1.375 -14.234375 L 9 -15.65625 C 9.175781 -13.53125 9.851562 -11.648438 11.03125 -10.015625 C 12.207031 -8.390625 13.75 -7.117188 15.65625 -6.203125 C 17.570312 -5.285156 19.707031 -4.828125 22.0625 -4.828125 C 25.28125 -4.828125 27.820312 -5.554688 29.6875 -7.015625 C 31.5625 -8.472656 32.5 -10.269531 32.5 -12.40625 C 32.5 -14.1875 31.8125 -15.617188 30.4375 -16.703125 C 29.070312 -17.796875 26.84375 -18.664062 23.75 -19.3125 L 16.765625 -20.8125 C 12.203125 -21.769531 8.84375 -23.257812 6.6875 -25.28125 C 4.53125 -27.3125 3.453125 -30 3.453125 -33.34375 C 3.453125 -36.257812 4.171875 -38.804688 5.609375 -40.984375 C 7.046875 -43.160156 9.035156 -44.859375 11.578125 -46.078125 C 14.128906 -47.296875 17.078125 -47.90625 20.421875 -47.90625 C 23.472656 -47.90625 26.21875 -47.347656 28.65625 -46.234375 C 31.09375 -45.128906 33.101562 -43.585938 34.6875 -41.609375 C 36.28125 -39.628906 37.269531 -37.3125 37.65625 -34.65625 L 30.15625 -32.953125 C 29.851562 -35.523438 28.804688 -37.582031 27.015625 -39.125 C 25.234375 -40.664062 23.035156 -41.4375 20.421875 -41.4375 C 17.679688 -41.4375 15.503906 -40.75 13.890625 -39.375 C 12.285156 -38.007812 11.484375 -36.304688 11.484375 -34.265625 C 11.484375 -32.609375 12.09375 -31.269531 13.3125 -30.25 C 14.53125 -29.226562 16.46875 -28.4375 19.125 -27.875 L 26.171875 -26.4375 C 35.703125 -24.5625 40.46875 -20.226562 40.46875 -13.4375 C 40.46875 -10.4375 39.679688 -7.804688 38.109375 -5.546875 C 36.546875 -3.285156 34.367188 -1.523438 31.578125 -0.265625 C 28.796875 0.992188 25.554688 1.625 21.859375 1.625 Z M 21.859375 1.625 "/></g></g></g><g fill="#323d8f" fill-opacity="1"><g transform="translate(42.948855, 49.93645)"><g><path d="M 20.8125 1.3125 C 17.113281 1.3125 13.816406 0.539062 10.921875 -1 C 8.035156 -2.550781 5.773438 -4.695312 4.140625 -7.4375 C 2.515625 -10.175781 1.703125 -13.3125 1.703125 -16.84375 C 1.703125 -20.320312 2.441406 -23.382812 3.921875 -26.03125 C 5.398438 -28.6875 7.453125 -30.765625 10.078125 -32.265625 C 12.710938 -33.773438 15.726562 -34.53125 19.125 -34.53125 C 22.46875 -34.53125 25.390625 -33.789062 27.890625 -32.3125 C 30.398438 -30.832031 32.347656 -28.796875 33.734375 -26.203125 C 35.128906 -23.617188 35.828125 -20.628906 35.828125 -17.234375 C 35.828125 -16.796875 35.804688 -16.316406 35.765625 -15.796875 C 35.722656 -15.273438 35.65625 -14.816406 35.5625 -14.421875 L 9.328125 -14.421875 C 9.679688 -11.460938 10.921875 -9.066406 13.046875 -7.234375 C 15.179688 -5.410156 17.835938 -4.5 21.015625 -4.5 C 23.367188 -4.5 25.507812 -5.019531 27.4375 -6.0625 C 29.375 -7.113281 30.820312 -8.421875 31.78125 -9.984375 L 36.671875 -6.984375 C 35.503906 -4.546875 33.472656 -2.550781 30.578125 -1 C 27.679688 0.539062 24.425781 1.3125 20.8125 1.3125 Z M 9.328125 -19.453125 L 28.265625 -19.453125 C 28.003906 -22.410156 27.054688 -24.691406 25.421875 -26.296875 C 23.785156 -27.910156 21.6875 -28.71875 19.125 -28.71875 C 16.507812 -28.71875 14.3125 -27.859375 12.53125 -26.140625 C 10.75 -24.421875 9.679688 -22.191406 9.328125 -19.453125 Z M 9.328125 -19.453125 "/></g></g></g><g fill="#323d8f" fill-opacity="1"><g transform="translate(81.062272, 49.93645)"><g><path d="M 22.640625 -34.328125 C 26.253906 -34.328125 29.09375 -33.25 31.15625 -31.09375 C 33.226562 -28.945312 34.265625 -25.957031 34.265625 -22.125 L 34.265625 0 L 26.890625 0 L 26.890625 -20.359375 C 26.890625 -22.753906 26.234375 -24.644531 24.921875 -26.03125 C 23.617188 -27.425781 21.878906 -28.125 19.703125 -28.125 C 16.960938 -28.125 14.710938 -27.234375 12.953125 -25.453125 C 11.191406 -23.671875 10.3125 -21.363281 10.3125 -18.53125 L 10.3125 0 L 2.9375 0 L 2.9375 -33.21875 L 9.328125 -33.21875 L 10.25 -27.734375 L 10.3125 -27.734375 C 11.65625 -29.828125 13.347656 -31.445312 15.390625 -32.59375 C 17.441406 -33.75 19.859375 -34.328125 22.640625 -34.328125 Z M 22.640625 -34.328125 "/></g></g></g><g fill="#323d8f" fill-opacity="1"><g transform="translate(117.021981, 49.93645)"><g><path d="M 18.53125 1.3125 C 15.007812 1.3125 12.191406 0.289062 10.078125 -1.75 C 7.972656 -3.800781 6.921875 -6.523438 6.921875 -9.921875 L 6.921875 -27.40625 L 0.125 -27.40625 L 0.125 -33.21875 L 6.921875 -33.21875 L 6.921875 -42.6875 L 14.296875 -44.3125 L 14.234375 -33.21875 L 28.328125 -33.21875 L 28.328125 -27.40625 L 14.234375 -27.40625 L 14.296875 -10.90625 C 14.296875 -9.070312 14.816406 -7.585938 15.859375 -6.453125 C 16.898438 -5.328125 18.226562 -4.765625 19.84375 -4.765625 C 21.445312 -4.765625 22.859375 -5.242188 24.078125 -6.203125 C 25.296875 -7.160156 26.191406 -8.53125 26.765625 -10.3125 L 30.34375 -6.46875 C 29.519531 -4.070312 28 -2.175781 25.78125 -0.78125 C 23.5625 0.613281 21.144531 1.3125 18.53125 1.3125 Z M 18.53125 1.3125 "/></g></g></g><g fill="#323d8f" fill-opacity="1"><g transform="translate(147.825984, 49.93645)"><g><path d="M 7.046875 -38.703125 C 5.609375 -38.703125 4.453125 -39.125 3.578125 -39.96875 C 2.710938 -40.820312 2.28125 -41.945312 2.28125 -43.34375 C 2.28125 -44.726562 2.710938 -45.832031 3.578125 -46.65625 C 4.453125 -47.488281 5.609375 -47.90625 7.046875 -47.90625 C 8.441406 -47.90625 9.582031 -47.488281 10.46875 -46.65625 C 11.363281 -45.832031 11.8125 -44.726562 11.8125 -43.34375 C 11.8125 -41.945312 11.363281 -40.820312 10.46875 -39.96875 C 9.582031 -39.125 8.441406 -38.703125 7.046875 -38.703125 Z M 3.328125 0 L 3.328125 -33.21875 L 10.640625 -33.21875 L 10.640625 0 Z M 3.328125 0 "/></g></g></g><g fill="#323d8f" fill-opacity="1"><g transform="translate(161.922733, 49.93645)"><g><path d="M 22.640625 -34.328125 C 26.253906 -34.328125 29.09375 -33.25 31.15625 -31.09375 C 33.226562 -28.945312 34.265625 -25.957031 34.265625 -22.125 L 34.265625 0 L 26.890625 0 L 26.890625 -20.359375 C 26.890625 -22.753906 26.234375 -24.644531 24.921875 -26.03125 C 23.617188 -27.425781 21.878906 -28.125 19.703125 -28.125 C 16.960938 -28.125 14.710938 -27.234375 12.953125 -25.453125 C 11.191406 -23.671875 10.3125 -21.363281 10.3125 -18.53125 L 10.3125 0 L 2.9375 0 L 2.9375 -33.21875 L 9.328125 -33.21875 L 10.25 -27.734375 L 10.3125 -27.734375 C 11.65625 -29.828125 13.347656 -31.445312 15.390625 -32.59375 C 17.441406 -33.75 19.859375 -34.328125 22.640625 -34.328125 Z M 22.640625 -34.328125 "/></g></g></g><g fill="#323d8f" fill-opacity="1"><g transform="translate(198.861428, 49.93645)"><g><path d="M 20.8125 1.3125 C 17.113281 1.3125 13.816406 0.539062 10.921875 -1 C 8.035156 -2.550781 5.773438 -4.695312 4.140625 -7.4375 C 2.515625 -10.175781 1.703125 -13.3125 1.703125 -16.84375 C 1.703125 -20.320312 2.441406 -23.382812 3.921875 -26.03125 C 5.398438 -28.6875 7.453125 -30.765625 10.078125 -32.265625 C 12.710938 -33.773438 15.726562 -34.53125 19.125 -34.53125 C 22.46875 -34.53125 25.390625 -33.789062 27.890625 -32.3125 C 30.398438 -30.832031 32.347656 -28.796875 33.734375 -26.203125 C 35.128906 -23.617188 35.828125 -20.628906 35.828125 -17.234375 C 35.828125 -16.796875 35.804688 -16.316406 35.765625 -15.796875 C 35.722656 -15.273438 35.65625 -14.816406 35.5625 -14.421875 L 9.328125 -14.421875 C 9.679688 -11.460938 10.921875 -9.066406 13.046875 -7.234375 C 15.179688 -5.410156 17.835938 -4.5 21.015625 -4.5 C 23.367188 -4.5 25.507812 -5.019531 27.4375 -6.0625 C 29.375 -7.113281 30.820312 -8.421875 31.78125 -9.984375 L 36.671875 -6.984375 C 35.503906 -4.546875 33.472656 -2.550781 30.578125 -1 C 27.679688 0.539062 24.425781 1.3125 20.8125 1.3125 Z M 9.328125 -19.453125 L 28.265625 -19.453125 C 28.003906 -22.410156 27.054688 -24.691406 25.421875 -26.296875 C 23.785156 -27.910156 21.6875 -28.71875 19.125 -28.71875 C 16.507812 -28.71875 14.3125 -27.859375 12.53125 -26.140625 C 10.75 -24.421875 9.679688 -22.191406 9.328125 -19.453125 Z M 9.328125 -19.453125 "/></g></g></g><g fill="#323d8f" fill-opacity="1"><g transform="translate(236.974845, 49.93645)"><g><path d="M 2.9375 0 L 2.9375 -48.234375 L 10.3125 -48.234375 L 10.3125 0 Z M 2.9375 0 "/></g></g></g></g></g></g><path fill="#ffffff" d="M 291.199219 6.617188 C 292.050781 6.652344 292.886719 6.765625 293.714844 6.964844 C 294.542969 7.164062 295.339844 7.441406 296.113281 7.796875 C 296.882812 8.152344 297.613281 8.582031 298.300781 9.082031 C 298.988281 9.582031 299.621094 10.140625 300.199219 10.765625 C 300.777344 11.390625 301.289062 12.066406 301.730469 12.789062 C 302.175781 13.515625 302.542969 14.277344 302.839844 15.074219 C 303.132812 15.871094 303.347656 16.691406 303.480469 17.53125 C 303.613281 18.371094 303.664062 19.214844 303.628906 20.0625 C 303.597656 20.914062 303.480469 21.753906 303.28125 22.578125 C 303.082031 23.40625 302.804688 24.203125 302.449219 24.976562 C 302.09375 25.75 301.664062 26.480469 301.164062 27.167969 C 300.667969 27.855469 300.105469 28.488281 299.480469 29.0625 C 298.855469 29.640625 298.179688 30.152344 297.457031 30.597656 C 296.730469 31.039062 295.96875 31.410156 295.171875 31.703125 C 294.375 31.996094 293.554688 32.210938 292.714844 32.34375 C 291.875 32.476562 291.03125 32.527344 290.183594 32.492188 C 289.332031 32.460938 288.496094 32.34375 287.667969 32.144531 C 286.839844 31.945312 286.042969 31.667969 285.269531 31.3125 C 284.496094 30.957031 283.769531 30.53125 283.078125 30.03125 C 282.390625 29.53125 281.761719 28.96875 281.183594 28.34375 C 280.605469 27.71875 280.09375 27.046875 279.652344 26.320312 C 279.207031 25.59375 278.835938 24.832031 278.542969 24.035156 C 278.25 23.238281 278.035156 22.421875 277.902344 21.582031 C 277.769531 20.742188 277.71875 19.894531 277.753906 19.046875 C 277.785156 18.195312 277.902344 17.359375 278.101562 16.53125 C 278.300781 15.707031 278.578125 14.90625 278.933594 14.132812 C 279.289062 13.363281 279.714844 12.632812 280.214844 11.945312 C 280.714844 11.257812 281.277344 10.625 281.902344 10.046875 C 282.527344 9.46875 283.203125 8.960938 283.925781 8.515625 C 284.652344 8.070312 285.414062 7.703125 286.210938 7.40625 C 287.007812 7.113281 287.828125 6.898438 288.667969 6.765625 C 289.507812 6.632812 290.351562 6.585938 291.199219 6.617188 Z M 291.199219 6.617188 " fill-opacity="1" fill-rule="nonzero"/><path fill="#323d8f" d="M 304.316406 24.050781 C 301.839844 31.5625 293.710938 35.660156 286.195312 33.179688 C 278.683594 30.703125 274.585938 22.574219 277.066406 15.058594 C 279.542969 7.546875 287.671875 3.449219 295.1875 5.929688 C 302.699219 8.40625 306.796875 16.535156 304.316406 24.050781 Z M 279.726562 15.9375 C 277.730469 21.984375 281.027344 28.527344 287.074219 30.519531 C 293.121094 32.515625 299.664062 29.21875 301.65625 23.171875 C 303.652344 17.125 300.355469 10.585938 294.308594 8.589844 C 288.261719 6.59375 281.71875 9.890625 279.726562 15.9375 Z M 279.726562 15.9375 " fill-opacity="1" fill-rule="nonzero"/><path fill="#323d8f" d="M 287.933594 13.167969 C 288.273438 13.171875 288.621094 13.226562 288.964844 13.339844 C 290.730469 13.921875 291.691406 15.828125 291.109375 17.597656 C 290.527344 19.363281 288.621094 20.324219 286.851562 19.742188 C 285.351562 19.246094 284.433594 17.800781 284.546875 16.292969 C 284.363281 16.636719 284.207031 16.996094 284.082031 17.375 C 282.878906 21.023438 284.863281 24.960938 288.511719 26.164062 C 292.160156 27.367188 296.09375 25.382812 297.300781 21.734375 C 298.503906 18.085938 296.519531 14.152344 292.871094 12.949219 C 291.1875 12.390625 289.441406 12.515625 287.933594 13.167969 Z M 287.933594 13.167969 " fill-opacity="1" fill-rule="nonzero"/><g clip-path="url(#2f458a897c)"><g clip-path="url(#e260ab76cf)"><g transform="matrix(1, 0, 0, 1, 259, 3)"><g clip-path="url(#42afc590ee)"><g clip-path="url(#a766322b53)"><g clip-path="url(#8cff8a4b84)"><g clip-path="url(#58e4256c2e)"><path fill="#ffffff" d="M 31.839844 31.835938 C 40.34375 31.539062 47.023438 24.382812 46.730469 15.875 C 46.433594 7.371094 39.277344 0.691406 30.773438 0.988281 C 22.265625 1.28125 15.585938 8.4375 15.882812 16.945312 C 16.175781 25.449219 23.335938 32.128906 31.839844 31.835938 Z M 30.859375 3.523438 C 31.707031 3.492188 32.546875 3.546875 33.382812 3.683594 C 34.21875 3.820312 35.03125 4.035156 35.824219 4.332031 C 36.617188 4.628906 37.375 5 38.09375 5.449219 C 38.8125 5.894531 39.484375 6.40625 40.101562 6.984375 C 40.722656 7.558594 41.277344 8.191406 41.773438 8.878906 C 42.269531 9.566406 42.691406 10.296875 43.042969 11.066406 C 43.390625 11.835938 43.664062 12.632812 43.859375 13.457031 C 44.050781 14.28125 44.164062 15.117188 44.191406 15.964844 C 44.222656 16.8125 44.167969 17.652344 44.03125 18.488281 C 43.894531 19.324219 43.679688 20.136719 43.382812 20.929688 C 43.085938 21.722656 42.714844 22.480469 42.269531 23.199219 C 41.824219 23.917969 41.3125 24.589844 40.734375 25.207031 C 40.15625 25.828125 39.523438 26.382812 38.835938 26.878906 C 38.148438 27.371094 37.421875 27.796875 36.648438 28.144531 C 35.878906 28.496094 35.082031 28.769531 34.257812 28.964844 C 33.433594 29.15625 32.597656 29.269531 31.75 29.296875 C 30.90625 29.328125 30.066406 29.273438 29.230469 29.136719 C 28.394531 29 27.578125 28.785156 26.785156 28.488281 C 25.992188 28.191406 25.238281 27.820312 24.515625 27.375 C 23.796875 26.929688 23.128906 26.417969 22.507812 25.839844 C 21.890625 25.261719 21.332031 24.628906 20.839844 23.941406 C 20.34375 23.253906 19.921875 22.523438 19.570312 21.753906 C 19.21875 20.984375 18.945312 20.1875 18.753906 19.363281 C 18.558594 18.539062 18.449219 17.703125 18.417969 16.855469 C 18.390625 16.011719 18.445312 15.171875 18.582031 14.335938 C 18.71875 13.5 18.9375 12.6875 19.234375 11.894531 C 19.53125 11.101562 19.902344 10.34375 20.347656 9.625 C 20.792969 8.90625 21.304688 8.238281 21.882812 7.617188 C 22.460938 7 23.09375 6.445312 23.777344 5.949219 C 24.464844 5.453125 25.195312 5.03125 25.964844 4.679688 C 26.734375 4.328125 27.53125 4.058594 28.355469 3.863281 C 29.179688 3.667969 30.015625 3.554688 30.859375 3.527344 Z M 30.859375 3.523438 " fill-opacity="1" fill-rule="nonzero"/></g></g></g><g clip-path="url(#c58112b187)"><g clip-path="url(#7a1f86b56e)"><g clip-path="url(#ee10fd7b8e)"><path fill="#ffffff" d="M 20.757812 33.886719 C 21.046875 33.878906 21.304688 33.789062 21.539062 33.621094 C 21.773438 33.453125 21.941406 33.238281 22.039062 32.96875 C 22.140625 32.699219 22.160156 32.425781 22.09375 32.144531 C 22.03125 31.867188 21.894531 31.628906 21.683594 31.429688 L 17.621094 27.609375 C 17.484375 27.46875 17.328125 27.359375 17.148438 27.28125 C 16.96875 27.203125 16.78125 27.164062 16.585938 27.164062 C 16.390625 27.164062 16.203125 27.203125 16.023438 27.28125 C 15.84375 27.355469 15.6875 27.46875 15.550781 27.609375 C 15.417969 27.75 15.316406 27.914062 15.25 28.097656 C 15.183594 28.28125 15.15625 28.472656 15.164062 28.667969 C 15.175781 28.863281 15.226562 29.046875 15.316406 29.222656 C 15.402344 29.398438 15.519531 29.546875 15.671875 29.675781 L 19.734375 33.496094 C 20.023438 33.769531 20.363281 33.898438 20.757812 33.886719 Z M 20.757812 33.886719 " fill-opacity="1" fill-rule="nonzero"/></g></g></g><g clip-path="url(#1d475cd6f7)"><g clip-path="url(#f6a6734fe6)"><g clip-path="url(#f6b3ee0676)"><path fill="#ffffff" d="M 4.175781 47.800781 C 4.859375 47.777344 5.433594 47.511719 5.890625 47.007812 L 15.972656 35.941406 C 16.191406 35.703125 16.355469 35.429688 16.464844 35.125 C 16.574219 34.824219 16.621094 34.507812 16.605469 34.1875 C 16.59375 33.863281 16.515625 33.554688 16.378906 33.261719 C 16.242188 32.972656 16.054688 32.714844 15.8125 32.496094 C 15.574219 32.28125 15.304688 32.117188 15 32.007812 C 14.695312 31.898438 14.382812 31.847656 14.058594 31.863281 C 13.738281 31.878906 13.429688 31.957031 13.136719 32.09375 C 12.84375 32.230469 12.589844 32.417969 12.371094 32.65625 L 2.289062 43.722656 C 1.960938 44.085938 1.757812 44.507812 1.683594 44.992188 C 1.609375 45.476562 1.671875 45.941406 1.878906 46.386719 C 2.085938 46.832031 2.398438 47.183594 2.8125 47.441406 C 3.230469 47.695312 3.683594 47.816406 4.175781 47.800781 Z M 4.175781 47.800781 " fill-opacity="1" fill-rule="nonzero"/></g></g></g><g clip-path="url(#3382295e7f)"><g clip-path="url(#23842a7567)"><g clip-path="url(#a2b8b7539d)"><path fill="#ffffff" d="M 31.707031 27.273438 C 33.695312 27.203125 36.300781 26.542969 39.035156 24.285156 C 41.4375 22.300781 42.476562 19.34375 42.035156 15.730469 C 41.824219 14.058594 41.371094 12.457031 40.671875 10.925781 C 40.578125 10.738281 40.433594 10.613281 40.234375 10.546875 C 40.035156 10.476562 39.84375 10.488281 39.652344 10.582031 C 39.464844 10.675781 39.335938 10.820312 39.269531 11.015625 C 39.199219 11.214844 39.210938 11.410156 39.304688 11.597656 C 39.929688 12.988281 40.335938 14.4375 40.527344 15.949219 C 40.894531 19.046875 40.066406 21.453125 38.066406 23.105469 C 33.128906 27.1875 28.722656 25.320312 28.675781 25.300781 C 28.484375 25.210938 28.285156 25.203125 28.085938 25.277344 C 27.886719 25.355469 27.742188 25.488281 27.65625 25.683594 C 27.570312 25.878906 27.570312 26.078125 27.648438 26.273438 C 27.726562 26.472656 27.867188 26.613281 28.0625 26.695312 C 28.171875 26.746094 29.585938 27.347656 31.707031 27.273438 Z M 31.707031 27.273438 " fill-opacity="1" fill-rule="nonzero"/></g></g></g></g></g></g></g></g></g></svg>